<svg width="237" height="149" viewBox="0 0 237 149" fill="none" xmlns="http://www.w3.org/2000/svg">
<path d="M34.256 72.152C32.144 87.608 26.096 93.656 19.568 96.056C38.48 100.76 36.272 136.376 18.992 136.568C0.944 136.856 2 115.64 2 103.064V44.984C2 29.336 1.328 11.48 17.744 11.48C40.4 11.48 16.592 63.896 12.656 72.92C12.656 80.504 12.56 88.088 12.56 95.576C20.528 95.096 29.744 91.448 32.528 71.96C32.624 71 34.448 71.096 34.256 72.152ZM21.296 130.424C33.68 130.04 35.12 96.152 14.096 97.208C13.616 97.304 13.136 97.304 12.56 97.304V103.256C12.56 110.072 11.504 130.808 21.296 130.424ZM20.144 16.184C11.504 16.184 12.56 39.128 12.56 44.792V68.792C28.88 32.408 26.576 16.184 20.144 16.184ZM65.3968 71.96C65.5888 70.616 67.4128 70.808 67.2208 72.152C65.8768 82.232 60.3088 95.096 48.3088 95.096C40.4368 95.096 32.4688 91.448 32.4688 75.128C32.4688 62.744 35.4448 51.128 47.4448 51.128C63.4768 51.128 63.0928 74.936 42.9328 74.168C43.1248 83.768 45.1407 90.392 50.8048 90.584C60.0208 90.872 64.3408 79.448 65.3968 71.96ZM50.2288 55.16C43.6048 55.16 43.0288 67.064 42.9328 72.44C60.4048 73.304 59.5408 55.16 50.2288 55.16ZM98.2093 71.96C98.4013 70.616 100.225 70.808 100.033 72.152C98.6893 82.232 93.1213 95.096 81.1213 95.096C73.2493 95.096 65.2812 91.448 65.2812 75.128C65.2812 62.744 68.2573 51.128 80.2573 51.128C96.2893 51.128 95.9053 74.936 75.7453 74.168C75.9373 83.768 77.9532 90.392 83.6173 90.584C92.8333 90.872 97.1533 79.448 98.2093 71.96ZM83.0413 55.16C76.4173 55.16 75.8413 67.064 75.7453 72.44C93.2173 73.304 92.3533 55.16 83.0413 55.16ZM117.39 72.056C117.678 70.712 119.406 70.904 119.214 72.152C117.966 81.176 115.086 95 108.366 95C100.878 95.096 98.2858 91.16 98.2858 85.688C98.0938 69.368 97.9017 49.4 97.9017 33.56C97.9017 17.912 97.2297 0.0559978 113.646 0.0559978C136.302 0.0559978 112.494 52.472 108.558 61.496C108.558 69.464 108.462 74.168 108.462 81.944C108.462 85.976 108.27 90.584 110.19 90.584C114.126 90.584 116.334 79.64 117.39 72.056ZM116.046 4.75999C107.406 4.75999 108.462 27.704 108.462 33.368V57.368C124.782 20.984 122.478 4.75999 116.046 4.75999ZM122.689 45.464C119.137 45.464 116.256 42.68 116.256 39.32C116.256 35.864 119.137 33.08 122.689 33.08C126.241 33.08 129.121 35.864 129.121 39.32C129.121 42.68 126.241 45.464 122.689 45.464ZM136.705 72.056C136.897 70.712 138.625 70.904 138.433 72.152C137.281 81.176 134.401 95 127.681 95C120.193 95.096 117.985 91.064 117.601 85.688C116.928 76.856 117.505 62.168 117.409 54.2C117.312 49.976 123.265 50.936 128.065 51.416C127.873 61.496 127.777 71.768 127.777 81.944C127.873 85.976 127.585 90.584 129.505 90.584C133.441 90.584 135.553 79.64 136.705 72.056ZM190.673 72.056C190.865 70.712 192.593 70.904 192.401 72.152C191.633 77.72 190.289 85.208 187.793 90.008C186.161 92.984 184.241 95 181.649 95C174.161 95.096 171.089 91.16 171.089 85.688C171.089 79.64 171.185 73.496 171.185 67.352C171.185 59.672 170.321 54.968 166.097 55.16C159.473 55.352 158.513 72.056 157.649 77.432C157.553 82.808 157.457 87.992 157.553 91.736C157.553 95.96 151.697 95 146.897 94.616C147.089 84.44 147.089 74.168 147.089 63.992C147.089 59.96 147.281 55.352 145.457 55.352C141.521 55.352 139.313 66.296 138.257 73.976C138.065 75.32 136.241 75.032 136.433 73.784C137.681 64.76 140.465 50.936 147.281 50.936C154.769 50.84 156.881 54.872 157.361 60.248C157.457 61.976 157.553 63.896 157.553 66.008C158.897 58.52 161.297 51.128 168.209 51.128C178.001 51.032 181.745 55.16 181.841 68.408C181.841 72.152 181.745 76.568 181.745 81.944C181.745 85.976 181.553 90.584 183.473 90.584C187.409 90.584 189.521 79.64 190.673 72.056ZM234.307 72.056C234.403 70.808 236.227 71.288 236.035 72.248C235.075 79.352 230.371 84.728 225.187 88.952V124.472C225.187 141.656 217.987 147.608 210.595 147.992C201.091 148.472 194.659 140.6 195.043 126.296C195.331 111.992 203.875 101.816 214.723 94.328V80.216C213.379 87.608 210.979 95.096 204.067 95.096C201.283 95.096 198.979 94.424 197.155 93.176C192.547 90.104 190.819 82.808 190.531 75.128C190.243 64.952 193.603 50.744 205.603 51.128C209.731 51.224 212.899 52.856 214.627 55.64V54.488C214.627 50.264 220.387 50.936 225.187 51.32V86.744C229.507 83 233.347 78.008 234.307 72.056ZM206.467 141.656C210.691 141.656 214.723 139.256 214.723 124.184V96.344C205.027 103.16 196.963 113.432 196.963 126.2C196.963 135.608 199.843 141.656 206.467 141.656ZM206.371 90.68C212.611 90.872 213.763 73.88 214.627 68.6V61.112C214.147 58.04 211.555 55.064 208.291 55.16C201.283 55.448 200.899 68.312 201.091 73.304C201.187 79.256 201.571 85.112 203.203 88.184C204.067 89.72 205.027 90.68 206.371 90.68Z" fill="#FFA000"/>
<path d="M34.256 72.152C32.144 87.608 26.096 93.656 19.568 96.056C38.48 100.76 36.272 136.376 18.992 136.568C0.944 136.856 2 115.64 2 103.064V44.984C2 29.336 1.328 11.48 17.744 11.48C40.4 11.48 16.592 63.896 12.656 72.92C12.656 80.504 12.56 88.088 12.56 95.576C20.528 95.096 29.744 91.448 32.528 71.96C32.624 71 34.448 71.096 34.256 72.152ZM21.296 130.424C33.68 130.04 35.12 96.152 14.096 97.208C13.616 97.304 13.136 97.304 12.56 97.304V103.256C12.56 110.072 11.504 130.808 21.296 130.424ZM20.144 16.184C11.504 16.184 12.56 39.128 12.56 44.792V68.792C28.88 32.408 26.576 16.184 20.144 16.184ZM65.3968 71.96C65.5888 70.616 67.4128 70.808 67.2208 72.152C65.8768 82.232 60.3088 95.096 48.3088 95.096C40.4368 95.096 32.4688 91.448 32.4688 75.128C32.4688 62.744 35.4448 51.128 47.4448 51.128C63.4768 51.128 63.0928 74.936 42.9328 74.168C43.1248 83.768 45.1407 90.392 50.8048 90.584C60.0208 90.872 64.3408 79.448 65.3968 71.96ZM50.2288 55.16C43.6048 55.16 43.0288 67.064 42.9328 72.44C60.4048 73.304 59.5408 55.16 50.2288 55.16ZM98.2093 71.96C98.4013 70.616 100.225 70.808 100.033 72.152C98.6893 82.232 93.1213 95.096 81.1213 95.096C73.2493 95.096 65.2812 91.448 65.2812 75.128C65.2812 62.744 68.2573 51.128 80.2573 51.128C96.2893 51.128 95.9053 74.936 75.7453 74.168C75.9373 83.768 77.9532 90.392 83.6173 90.584C92.8333 90.872 97.1533 79.448 98.2093 71.96ZM83.0413 55.16C76.4173 55.16 75.8413 67.064 75.7453 72.44C93.2173 73.304 92.3533 55.16 83.0413 55.16ZM117.39 72.056C117.678 70.712 119.406 70.904 119.214 72.152C117.966 81.176 115.086 95 108.366 95C100.878 95.096 98.2858 91.16 98.2858 85.688C98.0938 69.368 97.9017 49.4 97.9017 33.56C97.9017 17.912 97.2297 0.0559978 113.646 0.0559978C136.302 0.0559978 112.494 52.472 108.558 61.496C108.558 69.464 108.462 74.168 108.462 81.944C108.462 85.976 108.27 90.584 110.19 90.584C114.126 90.584 116.334 79.64 117.39 72.056ZM116.046 4.75999C107.406 4.75999 108.462 27.704 108.462 33.368V57.368C124.782 20.984 122.478 4.75999 116.046 4.75999ZM122.689 45.464C119.137 45.464 116.256 42.68 116.256 39.32C116.256 35.864 119.137 33.08 122.689 33.08C126.241 33.08 129.121 35.864 129.121 39.32C129.121 42.68 126.241 45.464 122.689 45.464ZM136.705 72.056C136.897 70.712 138.625 70.904 138.433 72.152C137.281 81.176 134.401 95 127.681 95C120.193 95.096 117.985 91.064 117.601 85.688C116.928 76.856 117.505 62.168 117.409 54.2C117.312 49.976 123.265 50.936 128.065 51.416C127.873 61.496 127.777 71.768 127.777 81.944C127.873 85.976 127.585 90.584 129.505 90.584C133.441 90.584 135.553 79.64 136.705 72.056ZM190.673 72.056C190.865 70.712 192.593 70.904 192.401 72.152C191.633 77.72 190.289 85.208 187.793 90.008C186.161 92.984 184.241 95 181.649 95C174.161 95.096 171.089 91.16 171.089 85.688C171.089 79.64 171.185 73.496 171.185 67.352C171.185 59.672 170.321 54.968 166.097 55.16C159.473 55.352 158.513 72.056 157.649 77.432C157.553 82.808 157.457 87.992 157.553 91.736C157.553 95.96 151.697 95 146.897 94.616C147.089 84.44 147.089 74.168 147.089 63.992C147.089 59.96 147.281 55.352 145.457 55.352C141.521 55.352 139.313 66.296 138.257 73.976C138.065 75.32 136.241 75.032 136.433 73.784C137.681 64.76 140.465 50.936 147.281 50.936C154.769 50.84 156.881 54.872 157.361 60.248C157.457 61.976 157.553 63.896 157.553 66.008C158.897 58.52 161.297 51.128 168.209 51.128C178.001 51.032 181.745 55.16 181.841 68.408C181.841 72.152 181.745 76.568 181.745 81.944C181.745 85.976 181.553 90.584 183.473 90.584C187.409 90.584 189.521 79.64 190.673 72.056ZM234.307 72.056C234.403 70.808 236.227 71.288 236.035 72.248C235.075 79.352 230.371 84.728 225.187 88.952V124.472C225.187 141.656 217.987 147.608 210.595 147.992C201.091 148.472 194.659 140.6 195.043 126.296C195.331 111.992 203.875 101.816 214.723 94.328V80.216C213.379 87.608 210.979 95.096 204.067 95.096C201.283 95.096 198.979 94.424 197.155 93.176C192.547 90.104 190.819 82.808 190.531 75.128C190.243 64.952 193.603 50.744 205.603 51.128C209.731 51.224 212.899 52.856 214.627 55.64V54.488C214.627 50.264 220.387 50.936 225.187 51.32V86.744C229.507 83 233.347 78.008 234.307 72.056ZM206.467 141.656C210.691 141.656 214.723 139.256 214.723 124.184V96.344C205.027 103.16 196.963 113.432 196.963 126.2C196.963 135.608 199.843 141.656 206.467 141.656ZM206.371 90.68C212.611 90.872 213.763 73.88 214.627 68.6V61.112C214.147 58.04 211.555 55.064 208.291 55.16C201.283 55.448 200.899 68.312 201.091 73.304C201.187 79.256 201.571 85.112 203.203 88.184C204.067 89.72 205.027 90.68 206.371 90.68Z" fill="url(#paint0_radial_3_154)"/>
<path d="M34.256 72.152C32.144 87.608 26.096 93.656 19.568 96.056C38.48 100.76 36.272 136.376 18.992 136.568C0.944 136.856 2 115.64 2 103.064V44.984C2 29.336 1.328 11.48 17.744 11.48C40.4 11.48 16.592 63.896 12.656 72.92C12.656 80.504 12.56 88.088 12.56 95.576C20.528 95.096 29.744 91.448 32.528 71.96C32.624 71 34.448 71.096 34.256 72.152ZM21.296 130.424C33.68 130.04 35.12 96.152 14.096 97.208C13.616 97.304 13.136 97.304 12.56 97.304V103.256C12.56 110.072 11.504 130.808 21.296 130.424ZM20.144 16.184C11.504 16.184 12.56 39.128 12.56 44.792V68.792C28.88 32.408 26.576 16.184 20.144 16.184ZM65.3968 71.96C65.5888 70.616 67.4128 70.808 67.2208 72.152C65.8768 82.232 60.3088 95.096 48.3088 95.096C40.4368 95.096 32.4688 91.448 32.4688 75.128C32.4688 62.744 35.4448 51.128 47.4448 51.128C63.4768 51.128 63.0928 74.936 42.9328 74.168C43.1248 83.768 45.1407 90.392 50.8048 90.584C60.0208 90.872 64.3408 79.448 65.3968 71.96ZM50.2288 55.16C43.6048 55.16 43.0288 67.064 42.9328 72.44C60.4048 73.304 59.5408 55.16 50.2288 55.16ZM98.2093 71.96C98.4013 70.616 100.225 70.808 100.033 72.152C98.6893 82.232 93.1213 95.096 81.1213 95.096C73.2493 95.096 65.2812 91.448 65.2812 75.128C65.2812 62.744 68.2573 51.128 80.2573 51.128C96.2893 51.128 95.9053 74.936 75.7453 74.168C75.9373 83.768 77.9532 90.392 83.6173 90.584C92.8333 90.872 97.1533 79.448 98.2093 71.96ZM83.0413 55.16C76.4173 55.16 75.8413 67.064 75.7453 72.44C93.2173 73.304 92.3533 55.16 83.0413 55.16ZM117.39 72.056C117.678 70.712 119.406 70.904 119.214 72.152C117.966 81.176 115.086 95 108.366 95C100.878 95.096 98.2858 91.16 98.2858 85.688C98.0938 69.368 97.9017 49.4 97.9017 33.56C97.9017 17.912 97.2297 0.0559978 113.646 0.0559978C136.302 0.0559978 112.494 52.472 108.558 61.496C108.558 69.464 108.462 74.168 108.462 81.944C108.462 85.976 108.27 90.584 110.19 90.584C114.126 90.584 116.334 79.64 117.39 72.056ZM116.046 4.75999C107.406 4.75999 108.462 27.704 108.462 33.368V57.368C124.782 20.984 122.478 4.75999 116.046 4.75999ZM122.689 45.464C119.137 45.464 116.256 42.68 116.256 39.32C116.256 35.864 119.137 33.08 122.689 33.08C126.241 33.08 129.121 35.864 129.121 39.32C129.121 42.68 126.241 45.464 122.689 45.464ZM136.705 72.056C136.897 70.712 138.625 70.904 138.433 72.152C137.281 81.176 134.401 95 127.681 95C120.193 95.096 117.985 91.064 117.601 85.688C116.928 76.856 117.505 62.168 117.409 54.2C117.312 49.976 123.265 50.936 128.065 51.416C127.873 61.496 127.777 71.768 127.777 81.944C127.873 85.976 127.585 90.584 129.505 90.584C133.441 90.584 135.553 79.64 136.705 72.056ZM190.673 72.056C190.865 70.712 192.593 70.904 192.401 72.152C191.633 77.72 190.289 85.208 187.793 90.008C186.161 92.984 184.241 95 181.649 95C174.161 95.096 171.089 91.16 171.089 85.688C171.089 79.64 171.185 73.496 171.185 67.352C171.185 59.672 170.321 54.968 166.097 55.16C159.473 55.352 158.513 72.056 157.649 77.432C157.553 82.808 157.457 87.992 157.553 91.736C157.553 95.96 151.697 95 146.897 94.616C147.089 84.44 147.089 74.168 147.089 63.992C147.089 59.96 147.281 55.352 145.457 55.352C141.521 55.352 139.313 66.296 138.257 73.976C138.065 75.32 136.241 75.032 136.433 73.784C137.681 64.76 140.465 50.936 147.281 50.936C154.769 50.84 156.881 54.872 157.361 60.248C157.457 61.976 157.553 63.896 157.553 66.008C158.897 58.52 161.297 51.128 168.209 51.128C178.001 51.032 181.745 55.16 181.841 68.408C181.841 72.152 181.745 76.568 181.745 81.944C181.745 85.976 181.553 90.584 183.473 90.584C187.409 90.584 189.521 79.64 190.673 72.056ZM234.307 72.056C234.403 70.808 236.227 71.288 236.035 72.248C235.075 79.352 230.371 84.728 225.187 88.952V124.472C225.187 141.656 217.987 147.608 210.595 147.992C201.091 148.472 194.659 140.6 195.043 126.296C195.331 111.992 203.875 101.816 214.723 94.328V80.216C213.379 87.608 210.979 95.096 204.067 95.096C201.283 95.096 198.979 94.424 197.155 93.176C192.547 90.104 190.819 82.808 190.531 75.128C190.243 64.952 193.603 50.744 205.603 51.128C209.731 51.224 212.899 52.856 214.627 55.64V54.488C214.627 50.264 220.387 50.936 225.187 51.32V86.744C229.507 83 233.347 78.008 234.307 72.056ZM206.467 141.656C210.691 141.656 214.723 139.256 214.723 124.184V96.344C205.027 103.16 196.963 113.432 196.963 126.2C196.963 135.608 199.843 141.656 206.467 141.656ZM206.371 90.68C212.611 90.872 213.763 73.88 214.627 68.6V61.112C214.147 58.04 211.555 55.064 208.291 55.16C201.283 55.448 200.899 68.312 201.091 73.304C201.187 79.256 201.571 85.112 203.203 88.184C204.067 89.72 205.027 90.68 206.371 90.68Z" fill="white"/>
<path d="M34.256 72.152C32.144 87.608 26.096 93.656 19.568 96.056C38.48 100.76 36.272 136.376 18.992 136.568C0.944 136.856 2 115.64 2 103.064V44.984C2 29.336 1.328 11.48 17.744 11.48C40.4 11.48 16.592 63.896 12.656 72.92C12.656 80.504 12.56 88.088 12.56 95.576C20.528 95.096 29.744 91.448 32.528 71.96C32.624 71 34.448 71.096 34.256 72.152ZM21.296 130.424C33.68 130.04 35.12 96.152 14.096 97.208C13.616 97.304 13.136 97.304 12.56 97.304V103.256C12.56 110.072 11.504 130.808 21.296 130.424ZM20.144 16.184C11.504 16.184 12.56 39.128 12.56 44.792V68.792C28.88 32.408 26.576 16.184 20.144 16.184ZM65.3968 71.96C65.5888 70.616 67.4128 70.808 67.2208 72.152C65.8768 82.232 60.3088 95.096 48.3088 95.096C40.4368 95.096 32.4688 91.448 32.4688 75.128C32.4688 62.744 35.4448 51.128 47.4448 51.128C63.4768 51.128 63.0928 74.936 42.9328 74.168C43.1248 83.768 45.1407 90.392 50.8048 90.584C60.0208 90.872 64.3408 79.448 65.3968 71.96ZM50.2288 55.16C43.6048 55.16 43.0288 67.064 42.9328 72.44C60.4048 73.304 59.5408 55.16 50.2288 55.16ZM98.2093 71.96C98.4013 70.616 100.225 70.808 100.033 72.152C98.6893 82.232 93.1213 95.096 81.1213 95.096C73.2493 95.096 65.2812 91.448 65.2812 75.128C65.2812 62.744 68.2573 51.128 80.2573 51.128C96.2893 51.128 95.9053 74.936 75.7453 74.168C75.9373 83.768 77.9532 90.392 83.6173 90.584C92.8333 90.872 97.1533 79.448 98.2093 71.96ZM83.0413 55.16C76.4173 55.16 75.8413 67.064 75.7453 72.44C93.2173 73.304 92.3533 55.16 83.0413 55.16ZM117.39 72.056C117.678 70.712 119.406 70.904 119.214 72.152C117.966 81.176 115.086 95 108.366 95C100.878 95.096 98.2858 91.16 98.2858 85.688C98.0938 69.368 97.9017 49.4 97.9017 33.56C97.9017 17.912 97.2297 0.0559978 113.646 0.0559978C136.302 0.0559978 112.494 52.472 108.558 61.496C108.558 69.464 108.462 74.168 108.462 81.944C108.462 85.976 108.27 90.584 110.19 90.584C114.126 90.584 116.334 79.64 117.39 72.056ZM116.046 4.75999C107.406 4.75999 108.462 27.704 108.462 33.368V57.368C124.782 20.984 122.478 4.75999 116.046 4.75999ZM122.689 45.464C119.137 45.464 116.256 42.68 116.256 39.32C116.256 35.864 119.137 33.08 122.689 33.08C126.241 33.08 129.121 35.864 129.121 39.32C129.121 42.68 126.241 45.464 122.689 45.464ZM136.705 72.056C136.897 70.712 138.625 70.904 138.433 72.152C137.281 81.176 134.401 95 127.681 95C120.193 95.096 117.985 91.064 117.601 85.688C116.928 76.856 117.505 62.168 117.409 54.2C117.312 49.976 123.265 50.936 128.065 51.416C127.873 61.496 127.777 71.768 127.777 81.944C127.873 85.976 127.585 90.584 129.505 90.584C133.441 90.584 135.553 79.64 136.705 72.056ZM190.673 72.056C190.865 70.712 192.593 70.904 192.401 72.152C191.633 77.72 190.289 85.208 187.793 90.008C186.161 92.984 184.241 95 181.649 95C174.161 95.096 171.089 91.16 171.089 85.688C171.089 79.64 171.185 73.496 171.185 67.352C171.185 59.672 170.321 54.968 166.097 55.16C159.473 55.352 158.513 72.056 157.649 77.432C157.553 82.808 157.457 87.992 157.553 91.736C157.553 95.96 151.697 95 146.897 94.616C147.089 84.44 147.089 74.168 147.089 63.992C147.089 59.96 147.281 55.352 145.457 55.352C141.521 55.352 139.313 66.296 138.257 73.976C138.065 75.32 136.241 75.032 136.433 73.784C137.681 64.76 140.465 50.936 147.281 50.936C154.769 50.84 156.881 54.872 157.361 60.248C157.457 61.976 157.553 63.896 157.553 66.008C158.897 58.52 161.297 51.128 168.209 51.128C178.001 51.032 181.745 55.16 181.841 68.408C181.841 72.152 181.745 76.568 181.745 81.944C181.745 85.976 181.553 90.584 183.473 90.584C187.409 90.584 189.521 79.64 190.673 72.056ZM234.307 72.056C234.403 70.808 236.227 71.288 236.035 72.248C235.075 79.352 230.371 84.728 225.187 88.952V124.472C225.187 141.656 217.987 147.608 210.595 147.992C201.091 148.472 194.659 140.6 195.043 126.296C195.331 111.992 203.875 101.816 214.723 94.328V80.216C213.379 87.608 210.979 95.096 204.067 95.096C201.283 95.096 198.979 94.424 197.155 93.176C192.547 90.104 190.819 82.808 190.531 75.128C190.243 64.952 193.603 50.744 205.603 51.128C209.731 51.224 212.899 52.856 214.627 55.64V54.488C214.627 50.264 220.387 50.936 225.187 51.32V86.744C229.507 83 233.347 78.008 234.307 72.056ZM206.467 141.656C210.691 141.656 214.723 139.256 214.723 124.184V96.344C205.027 103.16 196.963 113.432 196.963 126.2C196.963 135.608 199.843 141.656 206.467 141.656ZM206.371 90.68C212.611 90.872 213.763 73.88 214.627 68.6V61.112C214.147 58.04 211.555 55.064 208.291 55.16C201.283 55.448 200.899 68.312 201.091 73.304C201.187 79.256 201.571 85.112 203.203 88.184C204.067 89.72 205.027 90.68 206.371 90.68Z" fill="url(#paint1_radial_3_154)"/>
<defs>
<radialGradient id="paint0_radial_3_154" cx="0" cy="0" r="1" gradientUnits="userSpaceOnUse" gradientTransform="translate(121 79.5) scale(150.775 150.141)">
<stop stop-color="#FBB809"/>
<stop offset="1" stop-color="#8B590C"/>
</radialGradient>
<radialGradient id="paint1_radial_3_154" cx="0" cy="0" r="1" gradientUnits="userSpaceOnUse" gradientTransform="translate(121 79.5) scale(150.775 150.141)">
<stop stop-color="#FBB809"/>
<stop offset="1" stop-color="#8B590C"/>
</radialGradient>
</defs>
</svg>
