<svg width="40" height="40" viewBox="0 0 40 40" fill="none" xmlns="http://www.w3.org/2000/svg">
<path d="M29.7891 1.8335H10.211C5.58428 1.8335 1.83362 5.58416 1.83362 10.2108V29.789C1.83362 34.4156 5.58428 38.1663 10.211 38.1663H29.7891C34.4158 38.1663 38.1664 34.4156 38.1664 29.789V10.2108C38.1664 5.58416 34.4158 1.8335 29.7891 1.8335Z" fill="url(#paint0_linear_3_138)"/>
<path d="M25.8594 9.00151C27.2387 9.00707 28.5599 9.55745 29.5352 10.5328C30.5105 11.5081 31.0609 12.8293 31.0665 14.2085V25.7914C31.0609 27.1706 30.5105 28.4918 29.5352 29.4671C28.5599 30.4425 27.2387 30.9928 25.8594 30.9984H14.1407C12.7614 30.9928 11.4402 30.4425 10.4649 29.4671C9.48958 28.4918 8.9392 27.1706 8.93364 25.7914V14.2085C8.9392 12.8293 9.48958 11.5081 10.4649 10.5328C11.4402 9.55745 12.7614 9.00707 14.1407 9.00151H25.8594ZM25.8594 6.57964H14.1407C9.94458 6.57964 6.51099 10.0171 6.51099 14.2093V25.7914C6.51099 29.9875 9.94849 33.421 14.1407 33.421H25.8594C30.0555 33.421 33.4891 29.9835 33.4891 25.7914V14.2085C33.4891 10.0125 30.0555 6.57886 25.8594 6.57886V6.57964Z" fill="white"/>
<path d="M20 15.479C20.8942 15.479 21.7683 15.7442 22.5118 16.2409C23.2553 16.7377 23.8347 17.4438 24.1769 18.2699C24.5191 19.0961 24.6086 20.0051 24.4342 20.8821C24.2598 21.7591 23.8292 22.5647 23.1969 23.197C22.5646 23.8293 21.759 24.2599 20.882 24.4343C20.005 24.6088 19.096 24.5192 18.2698 24.177C17.4437 23.8349 16.7376 23.2554 16.2408 22.5119C15.744 21.7684 15.4789 20.8943 15.4789 20.0001C15.4803 18.8015 15.9571 17.6524 16.8047 16.8048C17.6522 15.9572 18.8014 15.4805 20 15.479ZM20 13.0571C18.6268 13.0571 17.2844 13.4643 16.1427 14.2272C15.0009 14.9901 14.111 16.0745 13.5855 17.3431C13.06 18.6118 12.9225 20.0078 13.1904 21.3546C13.4583 22.7014 14.1196 23.9385 15.0906 24.9095C16.0616 25.8805 17.2987 26.5418 18.6455 26.8097C19.9923 27.0776 21.3883 26.9401 22.6569 26.4146C23.9256 25.8891 25.0099 24.9992 25.7728 23.8574C26.5357 22.7156 26.9429 21.3733 26.9429 20.0001C26.9429 18.1587 26.2115 16.3927 24.9094 15.0907C23.6073 13.7886 21.8414 13.0571 20 13.0571Z" fill="white"/>
<path d="M27.0946 14.3984C28.0037 14.3984 28.7407 13.6614 28.7407 12.7523C28.7407 11.8432 28.0037 11.1062 27.0946 11.1062C26.1855 11.1062 25.4485 11.8432 25.4485 12.7523C25.4485 13.6614 26.1855 14.3984 27.0946 14.3984Z" fill="white"/>
<defs>
<linearGradient id="paint0_linear_3_138" x1="25.6461" y1="39.6913" x2="14.3539" y2="0.308494" gradientUnits="userSpaceOnUse">
<stop stop-color="#FFDB73"/>
<stop offset="0.08" stop-color="#FDAD4E"/>
<stop offset="0.15" stop-color="#FB832E"/>
<stop offset="0.19" stop-color="#FA7321"/>
<stop offset="0.23" stop-color="#F6692F"/>
<stop offset="0.37" stop-color="#E84A5A"/>
<stop offset="0.48" stop-color="#E03675"/>
<stop offset="0.55" stop-color="#DD2F7F"/>
<stop offset="0.68" stop-color="#B43D97"/>
<stop offset="0.97" stop-color="#4D60D4"/>
<stop offset="1" stop-color="#4264DB"/>
</linearGradient>
</defs>
</svg>
