<svg width="238" height="92" viewBox="0 0 238 92" fill="none" xmlns="http://www.w3.org/2000/svg">
<path d="M66.9928 79.1732C68.7957 78.1635 69.4448 79.678 68.1467 80.8319C56.752 91.217 46.6554 82.0579 37.4964 74.8461C35.2607 75.4952 32.8808 75.9279 30.3567 75.9279C0.499696 75.9279 3.16807 12.6801 23.0727 7.12701C25.092 2.3672 29.347 0.420005 33.8905 0.420005C60.6464 0.27577 65.6225 54.1482 44.6361 70.9517C52.6412 76.7933 59.9252 83.1397 66.9928 79.1732ZM30.3567 74.6298C32.2318 74.6298 33.9626 74.197 35.6213 73.4037C31.7269 70.4469 28.0489 68.1391 24.5151 68.1391C18.0244 68.067 23.1448 74.6298 30.3567 74.6298ZM26.895 63.1629C31.9433 63.1629 36.7031 65.5428 41.1744 68.5718C54.5884 51.1192 52.5691 2.22297 32.8808 2.58356C29.347 2.58356 26.0296 4.17016 24.5872 6.83854C25.9575 6.62218 27.3998 6.76642 28.9143 7.12701L28.5537 14.7716C26.6786 14.2667 24.9478 14.8437 23.4333 16.0697C25.3084 25.3729 35.0444 24.4354 35.8377 16.5024C35.6213 16.6466 35.3328 16.7187 34.9722 16.7187C33.8184 16.7187 32.8808 15.7812 32.8808 14.5552C32.8808 13.4013 33.8184 12.4638 34.9722 12.4638C36.3425 12.4638 37.0637 13.4734 37.1358 14.6273C37.857 25.3729 25.092 27.8971 22.3515 17.1515C14.4185 25.7335 11.3174 53.9318 19.0341 67.4179C19.8995 65.1101 22.5679 63.2351 26.895 63.1629ZM79.4016 58.7637C79.618 57.7541 80.9161 57.8983 80.7719 58.8358C79.8343 65.615 77.6708 76 72.6225 76C66.9973 76.0721 65.0501 73.1153 65.0501 69.0045C64.9059 56.7444 64.7616 41.7438 64.7616 29.8443C64.7616 18.089 64.2568 4.67499 76.589 4.67499C93.6089 4.67499 75.7236 44.0516 72.7667 50.8307C72.7667 56.8165 72.6946 60.3503 72.6946 66.1919C72.6946 69.2209 72.5504 72.6826 73.9928 72.6826C76.9496 72.6826 78.6083 64.4611 79.4016 58.7637ZM78.392 8.20879C71.9013 8.20879 72.6946 25.4451 72.6946 29.7V47.7296C84.9547 20.3968 83.2239 8.20879 78.392 8.20879ZM112.085 58.7637C112.23 57.7541 113.6 57.8983 113.456 58.8358C112.518 65.615 110.427 76 105.306 76C99.681 76.0721 98.0944 73.0431 97.7338 69.0045L97.5174 64.6774C96.5799 70.3027 94.7769 75.8558 89.5844 75.9279C82.2283 75.9279 79.4157 72.8268 79.3436 62.9466C79.2715 57.105 79.4878 51.1913 79.4157 45.3497C79.4157 42.1765 83.8149 42.8977 87.493 43.2583C87.3487 50.1095 87.3487 56.8165 87.3487 63.6678C87.3487 69.4372 87.9978 72.971 91.171 72.8989C96.1472 72.6826 96.8683 60.134 97.5174 56.1675C97.5174 52.0567 97.6616 48.1623 97.5895 45.3497C97.5895 42.1765 101.989 42.8977 105.595 43.2583C105.45 50.8307 105.378 58.5474 105.45 66.1919C105.45 69.2209 105.234 72.6826 106.676 72.6826C109.633 72.6826 111.22 64.4611 112.085 58.7637ZM136.759 58.6916C136.903 57.6819 138.273 57.8262 138.129 58.8358C137.119 66.4083 132.937 76.0721 123.922 76.0721C118.008 76.0721 112.022 73.3316 112.022 61.0715C112.022 51.7682 114.258 43.0419 123.273 43.0419C135.316 43.0419 135.028 60.9273 119.883 60.3503C120.027 67.5622 121.542 72.5383 125.797 72.6826C132.72 72.8989 135.965 64.3168 136.759 58.6916ZM125.364 46.0709C120.388 46.0709 119.955 55.0136 119.883 59.0522C133.009 59.7013 132.36 46.0709 125.364 46.0709ZM151.168 58.7637C151.384 57.7541 152.682 57.8983 152.538 58.8358C151.601 65.615 149.437 76 144.389 76C138.763 76.0721 136.816 73.1153 136.816 69.0045C136.672 56.7444 136.528 41.7438 136.528 29.8443C136.528 18.089 136.023 4.67499 148.355 4.67499C165.375 4.67499 147.49 44.0516 144.533 50.8307C144.533 56.8165 144.461 60.3503 144.461 66.1919C144.461 69.2209 144.317 72.6826 145.759 72.6826C148.716 72.6826 150.375 64.4611 151.168 58.7637ZM150.158 8.20879C143.668 8.20879 144.461 25.4451 144.461 29.7V47.7296C156.721 20.3968 154.99 8.20879 150.158 8.20879ZM175.846 58.6916C175.991 57.6819 177.361 57.8262 177.217 58.8358C176.207 66.4083 172.024 76.0721 163.009 76.0721C157.096 76.0721 151.11 73.3316 151.11 61.0715C151.11 51.7682 153.345 43.0419 162.36 43.0419C174.404 43.0419 174.116 60.9273 158.971 60.3503C159.115 67.5622 160.629 72.5383 164.884 72.6826C171.808 72.8989 175.053 64.3168 175.846 58.6916ZM164.452 46.0709C159.475 46.0709 159.043 55.0136 158.971 59.0522C172.096 59.7013 171.447 46.0709 164.452 46.0709ZM206.049 58.2589C206.121 57.6098 207.492 57.7541 207.347 58.4031C206.121 67.7785 202.66 69.7978 197.828 69.5815C195.592 73.7643 190.4 76.2885 184.991 76.2164C172.947 76.1442 175.76 62.7302 187.01 65.615C188.813 66.0477 190.472 66.5525 191.986 67.0573C192.203 65.3265 191.698 63.5957 190.327 62.1533C185.64 57.1771 180.015 53.3549 178.789 47.8739C177.995 51.9125 177.635 56.1675 177.058 59.9897C176.913 60.5667 175.615 60.3503 175.687 59.7734C176.409 54.7251 176.986 49.0999 178.284 44.0516C179.149 40.8784 180.664 36.984 183.548 35.1089H191.481C189.39 37.3446 186.505 41.888 186.577 45.0612C186.577 51.624 196.313 53.7876 198.549 61.5763C199.27 64.0284 199.126 66.3361 198.405 68.2833C202.299 68.2833 204.895 66.3361 206.049 58.2589ZM184.991 72.7547C188.452 72.7547 190.832 70.8075 191.698 68.3555C190.111 67.9227 188.452 67.3458 186.722 66.841C178.139 64.6774 178.139 72.7547 184.991 72.7547ZM236.192 58.2589C236.265 57.6098 237.635 57.7541 237.491 58.4031C236.265 67.7785 232.803 69.7978 227.971 69.5815C225.735 73.7643 220.543 76.2885 215.134 76.2164C203.09 76.1442 205.903 62.7302 217.153 65.615C218.956 66.0477 220.615 66.5525 222.129 67.0573C222.346 65.3265 221.841 63.5957 220.471 62.1533C215.783 57.1771 210.158 53.3549 208.932 47.8739C208.138 51.9125 207.778 56.1675 207.201 59.9897C207.057 60.5667 205.759 60.3503 205.831 59.7734C206.552 54.7251 207.129 49.0999 208.427 44.0516C209.292 40.8784 210.807 36.984 213.692 35.1089H221.625C219.533 37.3446 216.648 41.888 216.721 45.0612C216.721 51.624 226.457 53.7876 228.692 61.5763C229.413 64.0284 229.269 66.3361 228.548 68.2833C232.442 68.2833 235.039 66.3361 236.192 58.2589ZM215.134 72.7547C218.596 72.7547 220.976 70.8075 221.841 68.3555C220.254 67.9227 218.596 67.3458 216.865 66.841C208.283 64.6774 208.283 72.7547 215.134 72.7547Z" fill="#FFA000"/>
<path d="M66.9928 79.1732C68.7957 78.1635 69.4448 79.678 68.1467 80.8319C56.752 91.217 46.6554 82.0579 37.4964 74.8461C35.2607 75.4952 32.8808 75.9279 30.3567 75.9279C0.499696 75.9279 3.16807 12.6801 23.0727 7.12701C25.092 2.3672 29.347 0.420005 33.8905 0.420005C60.6464 0.27577 65.6225 54.1482 44.6361 70.9517C52.6412 76.7933 59.9252 83.1397 66.9928 79.1732ZM30.3567 74.6298C32.2318 74.6298 33.9626 74.197 35.6213 73.4037C31.7269 70.4469 28.0489 68.1391 24.5151 68.1391C18.0244 68.067 23.1448 74.6298 30.3567 74.6298ZM26.895 63.1629C31.9433 63.1629 36.7031 65.5428 41.1744 68.5718C54.5884 51.1192 52.5691 2.22297 32.8808 2.58356C29.347 2.58356 26.0296 4.17016 24.5872 6.83854C25.9575 6.62218 27.3998 6.76642 28.9143 7.12701L28.5537 14.7716C26.6786 14.2667 24.9478 14.8437 23.4333 16.0697C25.3084 25.3729 35.0444 24.4354 35.8377 16.5024C35.6213 16.6466 35.3328 16.7187 34.9722 16.7187C33.8184 16.7187 32.8808 15.7812 32.8808 14.5552C32.8808 13.4013 33.8184 12.4638 34.9722 12.4638C36.3425 12.4638 37.0637 13.4734 37.1358 14.6273C37.857 25.3729 25.092 27.8971 22.3515 17.1515C14.4185 25.7335 11.3174 53.9318 19.0341 67.4179C19.8995 65.1101 22.5679 63.2351 26.895 63.1629ZM79.4016 58.7637C79.618 57.7541 80.9161 57.8983 80.7719 58.8358C79.8343 65.615 77.6708 76 72.6225 76C66.9973 76.0721 65.0501 73.1153 65.0501 69.0045C64.9059 56.7444 64.7616 41.7438 64.7616 29.8443C64.7616 18.089 64.2568 4.67499 76.589 4.67499C93.6089 4.67499 75.7236 44.0516 72.7667 50.8307C72.7667 56.8165 72.6946 60.3503 72.6946 66.1919C72.6946 69.2209 72.5504 72.6826 73.9928 72.6826C76.9496 72.6826 78.6083 64.4611 79.4016 58.7637ZM78.392 8.20879C71.9013 8.20879 72.6946 25.4451 72.6946 29.7V47.7296C84.9547 20.3968 83.2239 8.20879 78.392 8.20879ZM112.085 58.7637C112.23 57.7541 113.6 57.8983 113.456 58.8358C112.518 65.615 110.427 76 105.306 76C99.681 76.0721 98.0944 73.0431 97.7338 69.0045L97.5174 64.6774C96.5799 70.3027 94.7769 75.8558 89.5844 75.9279C82.2283 75.9279 79.4157 72.8268 79.3436 62.9466C79.2715 57.105 79.4878 51.1913 79.4157 45.3497C79.4157 42.1765 83.8149 42.8977 87.493 43.2583C87.3487 50.1095 87.3487 56.8165 87.3487 63.6678C87.3487 69.4372 87.9978 72.971 91.171 72.8989C96.1472 72.6826 96.8683 60.134 97.5174 56.1675C97.5174 52.0567 97.6616 48.1623 97.5895 45.3497C97.5895 42.1765 101.989 42.8977 105.595 43.2583C105.45 50.8307 105.378 58.5474 105.45 66.1919C105.45 69.2209 105.234 72.6826 106.676 72.6826C109.633 72.6826 111.22 64.4611 112.085 58.7637ZM136.759 58.6916C136.903 57.6819 138.273 57.8262 138.129 58.8358C137.119 66.4083 132.937 76.0721 123.922 76.0721C118.008 76.0721 112.022 73.3316 112.022 61.0715C112.022 51.7682 114.258 43.0419 123.273 43.0419C135.316 43.0419 135.028 60.9273 119.883 60.3503C120.027 67.5622 121.542 72.5383 125.797 72.6826C132.72 72.8989 135.965 64.3168 136.759 58.6916ZM125.364 46.0709C120.388 46.0709 119.955 55.0136 119.883 59.0522C133.009 59.7013 132.36 46.0709 125.364 46.0709ZM151.168 58.7637C151.384 57.7541 152.682 57.8983 152.538 58.8358C151.601 65.615 149.437 76 144.389 76C138.763 76.0721 136.816 73.1153 136.816 69.0045C136.672 56.7444 136.528 41.7438 136.528 29.8443C136.528 18.089 136.023 4.67499 148.355 4.67499C165.375 4.67499 147.49 44.0516 144.533 50.8307C144.533 56.8165 144.461 60.3503 144.461 66.1919C144.461 69.2209 144.317 72.6826 145.759 72.6826C148.716 72.6826 150.375 64.4611 151.168 58.7637ZM150.158 8.20879C143.668 8.20879 144.461 25.4451 144.461 29.7V47.7296C156.721 20.3968 154.99 8.20879 150.158 8.20879ZM175.846 58.6916C175.991 57.6819 177.361 57.8262 177.217 58.8358C176.207 66.4083 172.024 76.0721 163.009 76.0721C157.096 76.0721 151.11 73.3316 151.11 61.0715C151.11 51.7682 153.345 43.0419 162.36 43.0419C174.404 43.0419 174.116 60.9273 158.971 60.3503C159.115 67.5622 160.629 72.5383 164.884 72.6826C171.808 72.8989 175.053 64.3168 175.846 58.6916ZM164.452 46.0709C159.475 46.0709 159.043 55.0136 158.971 59.0522C172.096 59.7013 171.447 46.0709 164.452 46.0709ZM206.049 58.2589C206.121 57.6098 207.492 57.7541 207.347 58.4031C206.121 67.7785 202.66 69.7978 197.828 69.5815C195.592 73.7643 190.4 76.2885 184.991 76.2164C172.947 76.1442 175.76 62.7302 187.01 65.615C188.813 66.0477 190.472 66.5525 191.986 67.0573C192.203 65.3265 191.698 63.5957 190.327 62.1533C185.64 57.1771 180.015 53.3549 178.789 47.8739C177.995 51.9125 177.635 56.1675 177.058 59.9897C176.913 60.5667 175.615 60.3503 175.687 59.7734C176.409 54.7251 176.986 49.0999 178.284 44.0516C179.149 40.8784 180.664 36.984 183.548 35.1089H191.481C189.39 37.3446 186.505 41.888 186.577 45.0612C186.577 51.624 196.313 53.7876 198.549 61.5763C199.27 64.0284 199.126 66.3361 198.405 68.2833C202.299 68.2833 204.895 66.3361 206.049 58.2589ZM184.991 72.7547C188.452 72.7547 190.832 70.8075 191.698 68.3555C190.111 67.9227 188.452 67.3458 186.722 66.841C178.139 64.6774 178.139 72.7547 184.991 72.7547ZM236.192 58.2589C236.265 57.6098 237.635 57.7541 237.491 58.4031C236.265 67.7785 232.803 69.7978 227.971 69.5815C225.735 73.7643 220.543 76.2885 215.134 76.2164C203.09 76.1442 205.903 62.7302 217.153 65.615C218.956 66.0477 220.615 66.5525 222.129 67.0573C222.346 65.3265 221.841 63.5957 220.471 62.1533C215.783 57.1771 210.158 53.3549 208.932 47.8739C208.138 51.9125 207.778 56.1675 207.201 59.9897C207.057 60.5667 205.759 60.3503 205.831 59.7734C206.552 54.7251 207.129 49.0999 208.427 44.0516C209.292 40.8784 210.807 36.984 213.692 35.1089H221.625C219.533 37.3446 216.648 41.888 216.721 45.0612C216.721 51.624 226.457 53.7876 228.692 61.5763C229.413 64.0284 229.269 66.3361 228.548 68.2833C232.442 68.2833 235.039 66.3361 236.192 58.2589ZM215.134 72.7547C218.596 72.7547 220.976 70.8075 221.841 68.3555C220.254 67.9227 218.596 67.3458 216.865 66.841C208.283 64.6774 208.283 72.7547 215.134 72.7547Z" fill="url(#paint0_radial_128_2819)"/>
<path d="M66.9928 79.1732C68.7957 78.1635 69.4448 79.678 68.1467 80.8319C56.752 91.217 46.6554 82.0579 37.4964 74.8461C35.2607 75.4952 32.8808 75.9279 30.3567 75.9279C0.499696 75.9279 3.16807 12.6801 23.0727 7.12701C25.092 2.3672 29.347 0.420005 33.8905 0.420005C60.6464 0.27577 65.6225 54.1482 44.6361 70.9517C52.6412 76.7933 59.9252 83.1397 66.9928 79.1732ZM30.3567 74.6298C32.2318 74.6298 33.9626 74.197 35.6213 73.4037C31.7269 70.4469 28.0489 68.1391 24.5151 68.1391C18.0244 68.067 23.1448 74.6298 30.3567 74.6298ZM26.895 63.1629C31.9433 63.1629 36.7031 65.5428 41.1744 68.5718C54.5884 51.1192 52.5691 2.22297 32.8808 2.58356C29.347 2.58356 26.0296 4.17016 24.5872 6.83854C25.9575 6.62218 27.3998 6.76642 28.9143 7.12701L28.5537 14.7716C26.6786 14.2667 24.9478 14.8437 23.4333 16.0697C25.3084 25.3729 35.0444 24.4354 35.8377 16.5024C35.6213 16.6466 35.3328 16.7187 34.9722 16.7187C33.8184 16.7187 32.8808 15.7812 32.8808 14.5552C32.8808 13.4013 33.8184 12.4638 34.9722 12.4638C36.3425 12.4638 37.0637 13.4734 37.1358 14.6273C37.857 25.3729 25.092 27.8971 22.3515 17.1515C14.4185 25.7335 11.3174 53.9318 19.0341 67.4179C19.8995 65.1101 22.5679 63.2351 26.895 63.1629ZM79.4016 58.7637C79.618 57.7541 80.9161 57.8983 80.7719 58.8358C79.8343 65.615 77.6708 76 72.6225 76C66.9973 76.0721 65.0501 73.1153 65.0501 69.0045C64.9059 56.7444 64.7616 41.7438 64.7616 29.8443C64.7616 18.089 64.2568 4.67499 76.589 4.67499C93.6089 4.67499 75.7236 44.0516 72.7667 50.8307C72.7667 56.8165 72.6946 60.3503 72.6946 66.1919C72.6946 69.2209 72.5504 72.6826 73.9928 72.6826C76.9496 72.6826 78.6083 64.4611 79.4016 58.7637ZM78.392 8.20879C71.9013 8.20879 72.6946 25.4451 72.6946 29.7V47.7296C84.9547 20.3968 83.2239 8.20879 78.392 8.20879ZM112.085 58.7637C112.23 57.7541 113.6 57.8983 113.456 58.8358C112.518 65.615 110.427 76 105.306 76C99.681 76.0721 98.0944 73.0431 97.7338 69.0045L97.5174 64.6774C96.5799 70.3027 94.7769 75.8558 89.5844 75.9279C82.2283 75.9279 79.4157 72.8268 79.3436 62.9466C79.2715 57.105 79.4878 51.1913 79.4157 45.3497C79.4157 42.1765 83.8149 42.8977 87.493 43.2583C87.3487 50.1095 87.3487 56.8165 87.3487 63.6678C87.3487 69.4372 87.9978 72.971 91.171 72.8989C96.1472 72.6826 96.8683 60.134 97.5174 56.1675C97.5174 52.0567 97.6616 48.1623 97.5895 45.3497C97.5895 42.1765 101.989 42.8977 105.595 43.2583C105.45 50.8307 105.378 58.5474 105.45 66.1919C105.45 69.2209 105.234 72.6826 106.676 72.6826C109.633 72.6826 111.22 64.4611 112.085 58.7637ZM136.759 58.6916C136.903 57.6819 138.273 57.8262 138.129 58.8358C137.119 66.4083 132.937 76.0721 123.922 76.0721C118.008 76.0721 112.022 73.3316 112.022 61.0715C112.022 51.7682 114.258 43.0419 123.273 43.0419C135.316 43.0419 135.028 60.9273 119.883 60.3503C120.027 67.5622 121.542 72.5383 125.797 72.6826C132.72 72.8989 135.965 64.3168 136.759 58.6916ZM125.364 46.0709C120.388 46.0709 119.955 55.0136 119.883 59.0522C133.009 59.7013 132.36 46.0709 125.364 46.0709ZM151.168 58.7637C151.384 57.7541 152.682 57.8983 152.538 58.8358C151.601 65.615 149.437 76 144.389 76C138.763 76.0721 136.816 73.1153 136.816 69.0045C136.672 56.7444 136.528 41.7438 136.528 29.8443C136.528 18.089 136.023 4.67499 148.355 4.67499C165.375 4.67499 147.49 44.0516 144.533 50.8307C144.533 56.8165 144.461 60.3503 144.461 66.1919C144.461 69.2209 144.317 72.6826 145.759 72.6826C148.716 72.6826 150.375 64.4611 151.168 58.7637ZM150.158 8.20879C143.668 8.20879 144.461 25.4451 144.461 29.7V47.7296C156.721 20.3968 154.99 8.20879 150.158 8.20879ZM175.846 58.6916C175.991 57.6819 177.361 57.8262 177.217 58.8358C176.207 66.4083 172.024 76.0721 163.009 76.0721C157.096 76.0721 151.11 73.3316 151.11 61.0715C151.11 51.7682 153.345 43.0419 162.36 43.0419C174.404 43.0419 174.116 60.9273 158.971 60.3503C159.115 67.5622 160.629 72.5383 164.884 72.6826C171.808 72.8989 175.053 64.3168 175.846 58.6916ZM164.452 46.0709C159.475 46.0709 159.043 55.0136 158.971 59.0522C172.096 59.7013 171.447 46.0709 164.452 46.0709ZM206.049 58.2589C206.121 57.6098 207.492 57.7541 207.347 58.4031C206.121 67.7785 202.66 69.7978 197.828 69.5815C195.592 73.7643 190.4 76.2885 184.991 76.2164C172.947 76.1442 175.76 62.7302 187.01 65.615C188.813 66.0477 190.472 66.5525 191.986 67.0573C192.203 65.3265 191.698 63.5957 190.327 62.1533C185.64 57.1771 180.015 53.3549 178.789 47.8739C177.995 51.9125 177.635 56.1675 177.058 59.9897C176.913 60.5667 175.615 60.3503 175.687 59.7734C176.409 54.7251 176.986 49.0999 178.284 44.0516C179.149 40.8784 180.664 36.984 183.548 35.1089H191.481C189.39 37.3446 186.505 41.888 186.577 45.0612C186.577 51.624 196.313 53.7876 198.549 61.5763C199.27 64.0284 199.126 66.3361 198.405 68.2833C202.299 68.2833 204.895 66.3361 206.049 58.2589ZM184.991 72.7547C188.452 72.7547 190.832 70.8075 191.698 68.3555C190.111 67.9227 188.452 67.3458 186.722 66.841C178.139 64.6774 178.139 72.7547 184.991 72.7547ZM236.192 58.2589C236.265 57.6098 237.635 57.7541 237.491 58.4031C236.265 67.7785 232.803 69.7978 227.971 69.5815C225.735 73.7643 220.543 76.2885 215.134 76.2164C203.09 76.1442 205.903 62.7302 217.153 65.615C218.956 66.0477 220.615 66.5525 222.129 67.0573C222.346 65.3265 221.841 63.5957 220.471 62.1533C215.783 57.1771 210.158 53.3549 208.932 47.8739C208.138 51.9125 207.778 56.1675 207.201 59.9897C207.057 60.5667 205.759 60.3503 205.831 59.7734C206.552 54.7251 207.129 49.0999 208.427 44.0516C209.292 40.8784 210.807 36.984 213.692 35.1089H221.625C219.533 37.3446 216.648 41.888 216.721 45.0612C216.721 51.624 226.457 53.7876 228.692 61.5763C229.413 64.0284 229.269 66.3361 228.548 68.2833C232.442 68.2833 235.039 66.3361 236.192 58.2589ZM215.134 72.7547C218.596 72.7547 220.976 70.8075 221.841 68.3555C220.254 67.9227 218.596 67.3458 216.865 66.841C208.283 64.6774 208.283 72.7547 215.134 72.7547Z" fill="white"/>
<path d="M66.9928 79.1732C68.7957 78.1635 69.4448 79.678 68.1467 80.8319C56.752 91.217 46.6554 82.0579 37.4964 74.8461C35.2607 75.4952 32.8808 75.9279 30.3567 75.9279C0.499696 75.9279 3.16807 12.6801 23.0727 7.12701C25.092 2.3672 29.347 0.420005 33.8905 0.420005C60.6464 0.27577 65.6225 54.1482 44.6361 70.9517C52.6412 76.7933 59.9252 83.1397 66.9928 79.1732ZM30.3567 74.6298C32.2318 74.6298 33.9626 74.197 35.6213 73.4037C31.7269 70.4469 28.0489 68.1391 24.5151 68.1391C18.0244 68.067 23.1448 74.6298 30.3567 74.6298ZM26.895 63.1629C31.9433 63.1629 36.7031 65.5428 41.1744 68.5718C54.5884 51.1192 52.5691 2.22297 32.8808 2.58356C29.347 2.58356 26.0296 4.17016 24.5872 6.83854C25.9575 6.62218 27.3998 6.76642 28.9143 7.12701L28.5537 14.7716C26.6786 14.2667 24.9478 14.8437 23.4333 16.0697C25.3084 25.3729 35.0444 24.4354 35.8377 16.5024C35.6213 16.6466 35.3328 16.7187 34.9722 16.7187C33.8184 16.7187 32.8808 15.7812 32.8808 14.5552C32.8808 13.4013 33.8184 12.4638 34.9722 12.4638C36.3425 12.4638 37.0637 13.4734 37.1358 14.6273C37.857 25.3729 25.092 27.8971 22.3515 17.1515C14.4185 25.7335 11.3174 53.9318 19.0341 67.4179C19.8995 65.1101 22.5679 63.2351 26.895 63.1629ZM79.4016 58.7637C79.618 57.7541 80.9161 57.8983 80.7719 58.8358C79.8343 65.615 77.6708 76 72.6225 76C66.9973 76.0721 65.0501 73.1153 65.0501 69.0045C64.9059 56.7444 64.7616 41.7438 64.7616 29.8443C64.7616 18.089 64.2568 4.67499 76.589 4.67499C93.6089 4.67499 75.7236 44.0516 72.7667 50.8307C72.7667 56.8165 72.6946 60.3503 72.6946 66.1919C72.6946 69.2209 72.5504 72.6826 73.9928 72.6826C76.9496 72.6826 78.6083 64.4611 79.4016 58.7637ZM78.392 8.20879C71.9013 8.20879 72.6946 25.4451 72.6946 29.7V47.7296C84.9547 20.3968 83.2239 8.20879 78.392 8.20879ZM112.085 58.7637C112.23 57.7541 113.6 57.8983 113.456 58.8358C112.518 65.615 110.427 76 105.306 76C99.681 76.0721 98.0944 73.0431 97.7338 69.0045L97.5174 64.6774C96.5799 70.3027 94.7769 75.8558 89.5844 75.9279C82.2283 75.9279 79.4157 72.8268 79.3436 62.9466C79.2715 57.105 79.4878 51.1913 79.4157 45.3497C79.4157 42.1765 83.8149 42.8977 87.493 43.2583C87.3487 50.1095 87.3487 56.8165 87.3487 63.6678C87.3487 69.4372 87.9978 72.971 91.171 72.8989C96.1472 72.6826 96.8683 60.134 97.5174 56.1675C97.5174 52.0567 97.6616 48.1623 97.5895 45.3497C97.5895 42.1765 101.989 42.8977 105.595 43.2583C105.45 50.8307 105.378 58.5474 105.45 66.1919C105.45 69.2209 105.234 72.6826 106.676 72.6826C109.633 72.6826 111.22 64.4611 112.085 58.7637ZM136.759 58.6916C136.903 57.6819 138.273 57.8262 138.129 58.8358C137.119 66.4083 132.937 76.0721 123.922 76.0721C118.008 76.0721 112.022 73.3316 112.022 61.0715C112.022 51.7682 114.258 43.0419 123.273 43.0419C135.316 43.0419 135.028 60.9273 119.883 60.3503C120.027 67.5622 121.542 72.5383 125.797 72.6826C132.72 72.8989 135.965 64.3168 136.759 58.6916ZM125.364 46.0709C120.388 46.0709 119.955 55.0136 119.883 59.0522C133.009 59.7013 132.36 46.0709 125.364 46.0709ZM151.168 58.7637C151.384 57.7541 152.682 57.8983 152.538 58.8358C151.601 65.615 149.437 76 144.389 76C138.763 76.0721 136.816 73.1153 136.816 69.0045C136.672 56.7444 136.528 41.7438 136.528 29.8443C136.528 18.089 136.023 4.67499 148.355 4.67499C165.375 4.67499 147.49 44.0516 144.533 50.8307C144.533 56.8165 144.461 60.3503 144.461 66.1919C144.461 69.2209 144.317 72.6826 145.759 72.6826C148.716 72.6826 150.375 64.4611 151.168 58.7637ZM150.158 8.20879C143.668 8.20879 144.461 25.4451 144.461 29.7V47.7296C156.721 20.3968 154.99 8.20879 150.158 8.20879ZM175.846 58.6916C175.991 57.6819 177.361 57.8262 177.217 58.8358C176.207 66.4083 172.024 76.0721 163.009 76.0721C157.096 76.0721 151.11 73.3316 151.11 61.0715C151.11 51.7682 153.345 43.0419 162.36 43.0419C174.404 43.0419 174.116 60.9273 158.971 60.3503C159.115 67.5622 160.629 72.5383 164.884 72.6826C171.808 72.8989 175.053 64.3168 175.846 58.6916ZM164.452 46.0709C159.475 46.0709 159.043 55.0136 158.971 59.0522C172.096 59.7013 171.447 46.0709 164.452 46.0709ZM206.049 58.2589C206.121 57.6098 207.492 57.7541 207.347 58.4031C206.121 67.7785 202.66 69.7978 197.828 69.5815C195.592 73.7643 190.4 76.2885 184.991 76.2164C172.947 76.1442 175.76 62.7302 187.01 65.615C188.813 66.0477 190.472 66.5525 191.986 67.0573C192.203 65.3265 191.698 63.5957 190.327 62.1533C185.64 57.1771 180.015 53.3549 178.789 47.8739C177.995 51.9125 177.635 56.1675 177.058 59.9897C176.913 60.5667 175.615 60.3503 175.687 59.7734C176.409 54.7251 176.986 49.0999 178.284 44.0516C179.149 40.8784 180.664 36.984 183.548 35.1089H191.481C189.39 37.3446 186.505 41.888 186.577 45.0612C186.577 51.624 196.313 53.7876 198.549 61.5763C199.27 64.0284 199.126 66.3361 198.405 68.2833C202.299 68.2833 204.895 66.3361 206.049 58.2589ZM184.991 72.7547C188.452 72.7547 190.832 70.8075 191.698 68.3555C190.111 67.9227 188.452 67.3458 186.722 66.841C178.139 64.6774 178.139 72.7547 184.991 72.7547ZM236.192 58.2589C236.265 57.6098 237.635 57.7541 237.491 58.4031C236.265 67.7785 232.803 69.7978 227.971 69.5815C225.735 73.7643 220.543 76.2885 215.134 76.2164C203.09 76.1442 205.903 62.7302 217.153 65.615C218.956 66.0477 220.615 66.5525 222.129 67.0573C222.346 65.3265 221.841 63.5957 220.471 62.1533C215.783 57.1771 210.158 53.3549 208.932 47.8739C208.138 51.9125 207.778 56.1675 207.201 59.9897C207.057 60.5667 205.759 60.3503 205.831 59.7734C206.552 54.7251 207.129 49.0999 208.427 44.0516C209.292 40.8784 210.807 36.984 213.692 35.1089H221.625C219.533 37.3446 216.648 41.888 216.721 45.0612C216.721 51.624 226.457 53.7876 228.692 61.5763C229.413 64.0284 229.269 66.3361 228.548 68.2833C232.442 68.2833 235.039 66.3361 236.192 58.2589ZM215.134 72.7547C218.596 72.7547 220.976 70.8075 221.841 68.3555C220.254 67.9227 218.596 67.3458 216.865 66.841C208.283 64.6774 208.283 72.7547 215.134 72.7547Z" fill="url(#paint1_radial_128_2819)"/>
<defs>
<radialGradient id="paint0_radial_128_2819" cx="0" cy="0" r="1" gradientUnits="userSpaceOnUse" gradientTransform="translate(122.5 58.5) scale(145.073 104.529)">
<stop stop-color="#FBB809"/>
<stop offset="1" stop-color="#8B590C"/>
</radialGradient>
<radialGradient id="paint1_radial_128_2819" cx="0" cy="0" r="1" gradientUnits="userSpaceOnUse" gradientTransform="translate(122.5 58.5) scale(145.073 104.529)">
<stop stop-color="#FBB809"/>
<stop offset="1" stop-color="#8B590C"/>
</radialGradient>
</defs>
</svg>
