<svg width="158" height="62" viewBox="0 0 158 62" fill="none" xmlns="http://www.w3.org/2000/svg">
<path d="M44.264 53.112C45.464 52.44 45.896 53.448 45.032 54.216C37.448 61.128 30.728 55.032 24.632 50.232C23.144 50.664 21.56 50.952 19.88 50.952C0.0079999 50.952 1.784 8.856 15.032 5.16C16.376 1.992 19.208 0.695995 22.232 0.695995C40.04 0.599997 43.352 36.456 29.384 47.64C34.712 51.528 39.56 55.752 44.264 53.112ZM19.88 50.088C21.128 50.088 22.28 49.8 23.384 49.272C20.792 47.304 18.344 45.768 15.992 45.768C11.672 45.72 15.08 50.088 19.88 50.088ZM17.576 42.456C20.936 42.456 24.104 44.04 27.08 46.056C36.008 34.44 34.664 1.896 21.56 2.136C19.208 2.136 17 3.192 16.04 4.968C16.952 4.824 17.912 4.92 18.92 5.16L18.68 10.248C17.432 9.912 16.28 10.296 15.272 11.112C16.52 17.304 23 16.68 23.528 11.4C23.384 11.496 23.192 11.544 22.952 11.544C22.184 11.544 21.56 10.92 21.56 10.104C21.56 9.336 22.184 8.712 22.952 8.712C23.864 8.712 24.344 9.384 24.392 10.152C24.872 17.304 16.376 18.984 14.552 11.832C9.272 17.544 7.208 36.312 12.344 45.288C12.92 43.752 14.696 42.504 17.576 42.456ZM52.523 39.528C52.667 38.856 53.531 38.952 53.435 39.576C52.811 44.088 51.371 51 48.011 51C44.267 51.048 42.971 49.08 42.971 46.344C42.875 38.184 42.779 28.2 42.779 20.28C42.779 12.456 42.443 3.528 50.651 3.528C61.979 3.528 50.075 29.736 48.107 34.248C48.107 38.232 48.059 40.584 48.059 44.472C48.059 46.488 47.963 48.792 48.923 48.792C50.891 48.792 51.995 43.32 52.523 39.528ZM51.851 5.88C47.531 5.88 48.059 17.352 48.059 20.184V32.184C56.219 13.992 55.067 5.88 51.851 5.88ZM74.2764 39.528C74.3724 38.856 75.2844 38.952 75.1884 39.576C74.5644 44.088 73.1724 51 69.7644 51C66.0204 51.048 64.9644 49.032 64.7244 46.344L64.5804 43.464C63.9564 47.208 62.7564 50.904 59.3004 50.952C54.4044 50.952 52.5324 48.888 52.4844 42.312C52.4364 38.424 52.5804 34.488 52.5324 30.6C52.5324 28.488 55.4604 28.968 57.9084 29.208C57.8124 33.768 57.8124 38.232 57.8124 42.792C57.8124 46.632 58.2444 48.984 60.3564 48.936C63.6684 48.792 64.1484 40.44 64.5804 37.8C64.5804 35.064 64.6764 32.472 64.6284 30.6C64.6284 28.488 67.5564 28.968 69.9564 29.208C69.8604 34.248 69.8124 39.384 69.8604 44.472C69.8604 46.488 69.7164 48.792 70.6764 48.792C72.6444 48.792 73.7004 43.32 74.2764 39.528ZM90.6984 39.48C90.7944 38.808 91.7064 38.904 91.6104 39.576C90.9384 44.616 88.1544 51.048 82.1544 51.048C78.2184 51.048 74.2344 49.224 74.2344 41.064C74.2344 34.872 75.7224 29.064 81.7224 29.064C89.7384 29.064 89.5464 40.968 79.4664 40.584C79.5624 45.384 80.5704 48.696 83.4024 48.792C88.0104 48.936 90.1704 43.224 90.6984 39.48ZM83.1144 31.08C79.8024 31.08 79.5144 37.032 79.4664 39.72C88.2024 40.152 87.7704 31.08 83.1144 31.08ZM100.289 39.528C100.433 38.856 101.297 38.952 101.201 39.576C100.577 44.088 99.1366 51 95.7766 51C92.0326 51.048 90.7366 49.08 90.7366 46.344C90.6406 38.184 90.5446 28.2 90.5446 20.28C90.5446 12.456 90.2086 3.528 98.4166 3.528C109.745 3.528 97.8406 29.736 95.8726 34.248C95.8726 38.232 95.8246 40.584 95.8246 44.472C95.8246 46.488 95.7286 48.792 96.6886 48.792C98.6566 48.792 99.7606 43.32 100.289 39.528ZM99.6166 5.88C95.2966 5.88 95.8246 17.352 95.8246 20.184V32.184C103.985 13.992 102.833 5.88 99.6166 5.88ZM116.714 39.48C116.81 38.808 117.722 38.904 117.626 39.576C116.954 44.616 114.17 51.048 108.17 51.048C104.234 51.048 100.25 49.224 100.25 41.064C100.25 34.872 101.738 29.064 107.738 29.064C115.754 29.064 115.562 40.968 105.482 40.584C105.578 45.384 106.586 48.696 109.418 48.792C114.026 48.936 116.186 43.224 116.714 39.48ZM109.13 31.08C105.818 31.08 105.53 37.032 105.482 39.72C114.218 40.152 113.786 31.08 109.13 31.08ZM136.816 39.192C136.864 38.76 137.776 38.856 137.68 39.288C136.864 45.528 134.56 46.872 131.344 46.728C129.856 49.512 126.4 51.192 122.8 51.144C114.784 51.096 116.656 42.168 124.144 44.088C125.344 44.376 126.448 44.712 127.456 45.048C127.6 43.896 127.264 42.744 126.352 41.784C123.232 38.472 119.488 35.928 118.672 32.28C118.144 34.968 117.904 37.8 117.52 40.344C117.424 40.728 116.56 40.584 116.608 40.2C117.088 36.84 117.472 33.096 118.336 29.736C118.912 27.624 119.92 25.032 121.84 23.784H127.12C125.728 25.272 123.808 28.296 123.856 30.408C123.856 34.776 130.336 36.216 131.824 41.4C132.304 43.032 132.208 44.568 131.728 45.864C134.32 45.864 136.048 44.568 136.816 39.192ZM122.8 48.84C125.104 48.84 126.688 47.544 127.264 45.912C126.208 45.624 125.104 45.24 123.952 44.904C118.24 43.464 118.24 48.84 122.8 48.84ZM156.879 39.192C156.927 38.76 157.839 38.856 157.743 39.288C156.927 45.528 154.623 46.872 151.407 46.728C149.919 49.512 146.463 51.192 142.863 51.144C134.847 51.096 136.719 42.168 144.207 44.088C145.407 44.376 146.511 44.712 147.519 45.048C147.663 43.896 147.327 42.744 146.415 41.784C143.295 38.472 139.551 35.928 138.735 32.28C138.207 34.968 137.967 37.8 137.583 40.344C137.487 40.728 136.623 40.584 136.671 40.2C137.151 36.84 137.535 33.096 138.399 29.736C138.975 27.624 139.983 25.032 141.903 23.784H147.183C145.791 25.272 143.871 28.296 143.919 30.408C143.919 34.776 150.399 36.216 151.887 41.4C152.367 43.032 152.271 44.568 151.791 45.864C154.383 45.864 156.111 44.568 156.879 39.192ZM142.863 48.84C145.167 48.84 146.751 47.544 147.327 45.912C146.271 45.624 145.167 45.24 144.015 44.904C138.303 43.464 138.303 48.84 142.863 48.84Z" fill="#FFA000"/>
<path d="M44.264 53.112C45.464 52.44 45.896 53.448 45.032 54.216C37.448 61.128 30.728 55.032 24.632 50.232C23.144 50.664 21.56 50.952 19.88 50.952C0.0079999 50.952 1.784 8.856 15.032 5.16C16.376 1.992 19.208 0.695995 22.232 0.695995C40.04 0.599997 43.352 36.456 29.384 47.64C34.712 51.528 39.56 55.752 44.264 53.112ZM19.88 50.088C21.128 50.088 22.28 49.8 23.384 49.272C20.792 47.304 18.344 45.768 15.992 45.768C11.672 45.72 15.08 50.088 19.88 50.088ZM17.576 42.456C20.936 42.456 24.104 44.04 27.08 46.056C36.008 34.44 34.664 1.896 21.56 2.136C19.208 2.136 17 3.192 16.04 4.968C16.952 4.824 17.912 4.92 18.92 5.16L18.68 10.248C17.432 9.912 16.28 10.296 15.272 11.112C16.52 17.304 23 16.68 23.528 11.4C23.384 11.496 23.192 11.544 22.952 11.544C22.184 11.544 21.56 10.92 21.56 10.104C21.56 9.336 22.184 8.712 22.952 8.712C23.864 8.712 24.344 9.384 24.392 10.152C24.872 17.304 16.376 18.984 14.552 11.832C9.272 17.544 7.208 36.312 12.344 45.288C12.92 43.752 14.696 42.504 17.576 42.456ZM52.523 39.528C52.667 38.856 53.531 38.952 53.435 39.576C52.811 44.088 51.371 51 48.011 51C44.267 51.048 42.971 49.08 42.971 46.344C42.875 38.184 42.779 28.2 42.779 20.28C42.779 12.456 42.443 3.528 50.651 3.528C61.979 3.528 50.075 29.736 48.107 34.248C48.107 38.232 48.059 40.584 48.059 44.472C48.059 46.488 47.963 48.792 48.923 48.792C50.891 48.792 51.995 43.32 52.523 39.528ZM51.851 5.88C47.531 5.88 48.059 17.352 48.059 20.184V32.184C56.219 13.992 55.067 5.88 51.851 5.88ZM74.2764 39.528C74.3724 38.856 75.2844 38.952 75.1884 39.576C74.5644 44.088 73.1724 51 69.7644 51C66.0204 51.048 64.9644 49.032 64.7244 46.344L64.5804 43.464C63.9564 47.208 62.7564 50.904 59.3004 50.952C54.4044 50.952 52.5324 48.888 52.4844 42.312C52.4364 38.424 52.5804 34.488 52.5324 30.6C52.5324 28.488 55.4604 28.968 57.9084 29.208C57.8124 33.768 57.8124 38.232 57.8124 42.792C57.8124 46.632 58.2444 48.984 60.3564 48.936C63.6684 48.792 64.1484 40.44 64.5804 37.8C64.5804 35.064 64.6764 32.472 64.6284 30.6C64.6284 28.488 67.5564 28.968 69.9564 29.208C69.8604 34.248 69.8124 39.384 69.8604 44.472C69.8604 46.488 69.7164 48.792 70.6764 48.792C72.6444 48.792 73.7004 43.32 74.2764 39.528ZM90.6984 39.48C90.7944 38.808 91.7064 38.904 91.6104 39.576C90.9384 44.616 88.1544 51.048 82.1544 51.048C78.2184 51.048 74.2344 49.224 74.2344 41.064C74.2344 34.872 75.7224 29.064 81.7224 29.064C89.7384 29.064 89.5464 40.968 79.4664 40.584C79.5624 45.384 80.5704 48.696 83.4024 48.792C88.0104 48.936 90.1704 43.224 90.6984 39.48ZM83.1144 31.08C79.8024 31.08 79.5144 37.032 79.4664 39.72C88.2024 40.152 87.7704 31.08 83.1144 31.08ZM100.289 39.528C100.433 38.856 101.297 38.952 101.201 39.576C100.577 44.088 99.1366 51 95.7766 51C92.0326 51.048 90.7366 49.08 90.7366 46.344C90.6406 38.184 90.5446 28.2 90.5446 20.28C90.5446 12.456 90.2086 3.528 98.4166 3.528C109.745 3.528 97.8406 29.736 95.8726 34.248C95.8726 38.232 95.8246 40.584 95.8246 44.472C95.8246 46.488 95.7286 48.792 96.6886 48.792C98.6566 48.792 99.7606 43.32 100.289 39.528ZM99.6166 5.88C95.2966 5.88 95.8246 17.352 95.8246 20.184V32.184C103.985 13.992 102.833 5.88 99.6166 5.88ZM116.714 39.48C116.81 38.808 117.722 38.904 117.626 39.576C116.954 44.616 114.17 51.048 108.17 51.048C104.234 51.048 100.25 49.224 100.25 41.064C100.25 34.872 101.738 29.064 107.738 29.064C115.754 29.064 115.562 40.968 105.482 40.584C105.578 45.384 106.586 48.696 109.418 48.792C114.026 48.936 116.186 43.224 116.714 39.48ZM109.13 31.08C105.818 31.08 105.53 37.032 105.482 39.72C114.218 40.152 113.786 31.08 109.13 31.08ZM136.816 39.192C136.864 38.76 137.776 38.856 137.68 39.288C136.864 45.528 134.56 46.872 131.344 46.728C129.856 49.512 126.4 51.192 122.8 51.144C114.784 51.096 116.656 42.168 124.144 44.088C125.344 44.376 126.448 44.712 127.456 45.048C127.6 43.896 127.264 42.744 126.352 41.784C123.232 38.472 119.488 35.928 118.672 32.28C118.144 34.968 117.904 37.8 117.52 40.344C117.424 40.728 116.56 40.584 116.608 40.2C117.088 36.84 117.472 33.096 118.336 29.736C118.912 27.624 119.92 25.032 121.84 23.784H127.12C125.728 25.272 123.808 28.296 123.856 30.408C123.856 34.776 130.336 36.216 131.824 41.4C132.304 43.032 132.208 44.568 131.728 45.864C134.32 45.864 136.048 44.568 136.816 39.192ZM122.8 48.84C125.104 48.84 126.688 47.544 127.264 45.912C126.208 45.624 125.104 45.24 123.952 44.904C118.24 43.464 118.24 48.84 122.8 48.84ZM156.879 39.192C156.927 38.76 157.839 38.856 157.743 39.288C156.927 45.528 154.623 46.872 151.407 46.728C149.919 49.512 146.463 51.192 142.863 51.144C134.847 51.096 136.719 42.168 144.207 44.088C145.407 44.376 146.511 44.712 147.519 45.048C147.663 43.896 147.327 42.744 146.415 41.784C143.295 38.472 139.551 35.928 138.735 32.28C138.207 34.968 137.967 37.8 137.583 40.344C137.487 40.728 136.623 40.584 136.671 40.2C137.151 36.84 137.535 33.096 138.399 29.736C138.975 27.624 139.983 25.032 141.903 23.784H147.183C145.791 25.272 143.871 28.296 143.919 30.408C143.919 34.776 150.399 36.216 151.887 41.4C152.367 43.032 152.271 44.568 151.791 45.864C154.383 45.864 156.111 44.568 156.879 39.192ZM142.863 48.84C145.167 48.84 146.751 47.544 147.327 45.912C146.271 45.624 145.167 45.24 144.015 44.904C138.303 43.464 138.303 48.84 142.863 48.84Z" fill="url(#paint0_radial_121_4562)"/>
<path d="M44.264 53.112C45.464 52.44 45.896 53.448 45.032 54.216C37.448 61.128 30.728 55.032 24.632 50.232C23.144 50.664 21.56 50.952 19.88 50.952C0.0079999 50.952 1.784 8.856 15.032 5.16C16.376 1.992 19.208 0.695995 22.232 0.695995C40.04 0.599997 43.352 36.456 29.384 47.64C34.712 51.528 39.56 55.752 44.264 53.112ZM19.88 50.088C21.128 50.088 22.28 49.8 23.384 49.272C20.792 47.304 18.344 45.768 15.992 45.768C11.672 45.72 15.08 50.088 19.88 50.088ZM17.576 42.456C20.936 42.456 24.104 44.04 27.08 46.056C36.008 34.44 34.664 1.896 21.56 2.136C19.208 2.136 17 3.192 16.04 4.968C16.952 4.824 17.912 4.92 18.92 5.16L18.68 10.248C17.432 9.912 16.28 10.296 15.272 11.112C16.52 17.304 23 16.68 23.528 11.4C23.384 11.496 23.192 11.544 22.952 11.544C22.184 11.544 21.56 10.92 21.56 10.104C21.56 9.336 22.184 8.712 22.952 8.712C23.864 8.712 24.344 9.384 24.392 10.152C24.872 17.304 16.376 18.984 14.552 11.832C9.272 17.544 7.208 36.312 12.344 45.288C12.92 43.752 14.696 42.504 17.576 42.456ZM52.523 39.528C52.667 38.856 53.531 38.952 53.435 39.576C52.811 44.088 51.371 51 48.011 51C44.267 51.048 42.971 49.08 42.971 46.344C42.875 38.184 42.779 28.2 42.779 20.28C42.779 12.456 42.443 3.528 50.651 3.528C61.979 3.528 50.075 29.736 48.107 34.248C48.107 38.232 48.059 40.584 48.059 44.472C48.059 46.488 47.963 48.792 48.923 48.792C50.891 48.792 51.995 43.32 52.523 39.528ZM51.851 5.88C47.531 5.88 48.059 17.352 48.059 20.184V32.184C56.219 13.992 55.067 5.88 51.851 5.88ZM74.2764 39.528C74.3724 38.856 75.2844 38.952 75.1884 39.576C74.5644 44.088 73.1724 51 69.7644 51C66.0204 51.048 64.9644 49.032 64.7244 46.344L64.5804 43.464C63.9564 47.208 62.7564 50.904 59.3004 50.952C54.4044 50.952 52.5324 48.888 52.4844 42.312C52.4364 38.424 52.5804 34.488 52.5324 30.6C52.5324 28.488 55.4604 28.968 57.9084 29.208C57.8124 33.768 57.8124 38.232 57.8124 42.792C57.8124 46.632 58.2444 48.984 60.3564 48.936C63.6684 48.792 64.1484 40.44 64.5804 37.8C64.5804 35.064 64.6764 32.472 64.6284 30.6C64.6284 28.488 67.5564 28.968 69.9564 29.208C69.8604 34.248 69.8124 39.384 69.8604 44.472C69.8604 46.488 69.7164 48.792 70.6764 48.792C72.6444 48.792 73.7004 43.32 74.2764 39.528ZM90.6984 39.48C90.7944 38.808 91.7064 38.904 91.6104 39.576C90.9384 44.616 88.1544 51.048 82.1544 51.048C78.2184 51.048 74.2344 49.224 74.2344 41.064C74.2344 34.872 75.7224 29.064 81.7224 29.064C89.7384 29.064 89.5464 40.968 79.4664 40.584C79.5624 45.384 80.5704 48.696 83.4024 48.792C88.0104 48.936 90.1704 43.224 90.6984 39.48ZM83.1144 31.08C79.8024 31.08 79.5144 37.032 79.4664 39.72C88.2024 40.152 87.7704 31.08 83.1144 31.08ZM100.289 39.528C100.433 38.856 101.297 38.952 101.201 39.576C100.577 44.088 99.1366 51 95.7766 51C92.0326 51.048 90.7366 49.08 90.7366 46.344C90.6406 38.184 90.5446 28.2 90.5446 20.28C90.5446 12.456 90.2086 3.528 98.4166 3.528C109.745 3.528 97.8406 29.736 95.8726 34.248C95.8726 38.232 95.8246 40.584 95.8246 44.472C95.8246 46.488 95.7286 48.792 96.6886 48.792C98.6566 48.792 99.7606 43.32 100.289 39.528ZM99.6166 5.88C95.2966 5.88 95.8246 17.352 95.8246 20.184V32.184C103.985 13.992 102.833 5.88 99.6166 5.88ZM116.714 39.48C116.81 38.808 117.722 38.904 117.626 39.576C116.954 44.616 114.17 51.048 108.17 51.048C104.234 51.048 100.25 49.224 100.25 41.064C100.25 34.872 101.738 29.064 107.738 29.064C115.754 29.064 115.562 40.968 105.482 40.584C105.578 45.384 106.586 48.696 109.418 48.792C114.026 48.936 116.186 43.224 116.714 39.48ZM109.13 31.08C105.818 31.08 105.53 37.032 105.482 39.72C114.218 40.152 113.786 31.08 109.13 31.08ZM136.816 39.192C136.864 38.76 137.776 38.856 137.68 39.288C136.864 45.528 134.56 46.872 131.344 46.728C129.856 49.512 126.4 51.192 122.8 51.144C114.784 51.096 116.656 42.168 124.144 44.088C125.344 44.376 126.448 44.712 127.456 45.048C127.6 43.896 127.264 42.744 126.352 41.784C123.232 38.472 119.488 35.928 118.672 32.28C118.144 34.968 117.904 37.8 117.52 40.344C117.424 40.728 116.56 40.584 116.608 40.2C117.088 36.84 117.472 33.096 118.336 29.736C118.912 27.624 119.92 25.032 121.84 23.784H127.12C125.728 25.272 123.808 28.296 123.856 30.408C123.856 34.776 130.336 36.216 131.824 41.4C132.304 43.032 132.208 44.568 131.728 45.864C134.32 45.864 136.048 44.568 136.816 39.192ZM122.8 48.84C125.104 48.84 126.688 47.544 127.264 45.912C126.208 45.624 125.104 45.24 123.952 44.904C118.24 43.464 118.24 48.84 122.8 48.84ZM156.879 39.192C156.927 38.76 157.839 38.856 157.743 39.288C156.927 45.528 154.623 46.872 151.407 46.728C149.919 49.512 146.463 51.192 142.863 51.144C134.847 51.096 136.719 42.168 144.207 44.088C145.407 44.376 146.511 44.712 147.519 45.048C147.663 43.896 147.327 42.744 146.415 41.784C143.295 38.472 139.551 35.928 138.735 32.28C138.207 34.968 137.967 37.8 137.583 40.344C137.487 40.728 136.623 40.584 136.671 40.2C137.151 36.84 137.535 33.096 138.399 29.736C138.975 27.624 139.983 25.032 141.903 23.784H147.183C145.791 25.272 143.871 28.296 143.919 30.408C143.919 34.776 150.399 36.216 151.887 41.4C152.367 43.032 152.271 44.568 151.791 45.864C154.383 45.864 156.111 44.568 156.879 39.192ZM142.863 48.84C145.167 48.84 146.751 47.544 147.327 45.912C146.271 45.624 145.167 45.24 144.015 44.904C138.303 43.464 138.303 48.84 142.863 48.84Z" fill="white"/>
<path d="M44.264 53.112C45.464 52.44 45.896 53.448 45.032 54.216C37.448 61.128 30.728 55.032 24.632 50.232C23.144 50.664 21.56 50.952 19.88 50.952C0.0079999 50.952 1.784 8.856 15.032 5.16C16.376 1.992 19.208 0.695995 22.232 0.695995C40.04 0.599997 43.352 36.456 29.384 47.64C34.712 51.528 39.56 55.752 44.264 53.112ZM19.88 50.088C21.128 50.088 22.28 49.8 23.384 49.272C20.792 47.304 18.344 45.768 15.992 45.768C11.672 45.72 15.08 50.088 19.88 50.088ZM17.576 42.456C20.936 42.456 24.104 44.04 27.08 46.056C36.008 34.44 34.664 1.896 21.56 2.136C19.208 2.136 17 3.192 16.04 4.968C16.952 4.824 17.912 4.92 18.92 5.16L18.68 10.248C17.432 9.912 16.28 10.296 15.272 11.112C16.52 17.304 23 16.68 23.528 11.4C23.384 11.496 23.192 11.544 22.952 11.544C22.184 11.544 21.56 10.92 21.56 10.104C21.56 9.336 22.184 8.712 22.952 8.712C23.864 8.712 24.344 9.384 24.392 10.152C24.872 17.304 16.376 18.984 14.552 11.832C9.272 17.544 7.208 36.312 12.344 45.288C12.92 43.752 14.696 42.504 17.576 42.456ZM52.523 39.528C52.667 38.856 53.531 38.952 53.435 39.576C52.811 44.088 51.371 51 48.011 51C44.267 51.048 42.971 49.08 42.971 46.344C42.875 38.184 42.779 28.2 42.779 20.28C42.779 12.456 42.443 3.528 50.651 3.528C61.979 3.528 50.075 29.736 48.107 34.248C48.107 38.232 48.059 40.584 48.059 44.472C48.059 46.488 47.963 48.792 48.923 48.792C50.891 48.792 51.995 43.32 52.523 39.528ZM51.851 5.88C47.531 5.88 48.059 17.352 48.059 20.184V32.184C56.219 13.992 55.067 5.88 51.851 5.88ZM74.2764 39.528C74.3724 38.856 75.2844 38.952 75.1884 39.576C74.5644 44.088 73.1724 51 69.7644 51C66.0204 51.048 64.9644 49.032 64.7244 46.344L64.5804 43.464C63.9564 47.208 62.7564 50.904 59.3004 50.952C54.4044 50.952 52.5324 48.888 52.4844 42.312C52.4364 38.424 52.5804 34.488 52.5324 30.6C52.5324 28.488 55.4604 28.968 57.9084 29.208C57.8124 33.768 57.8124 38.232 57.8124 42.792C57.8124 46.632 58.2444 48.984 60.3564 48.936C63.6684 48.792 64.1484 40.44 64.5804 37.8C64.5804 35.064 64.6764 32.472 64.6284 30.6C64.6284 28.488 67.5564 28.968 69.9564 29.208C69.8604 34.248 69.8124 39.384 69.8604 44.472C69.8604 46.488 69.7164 48.792 70.6764 48.792C72.6444 48.792 73.7004 43.32 74.2764 39.528ZM90.6984 39.48C90.7944 38.808 91.7064 38.904 91.6104 39.576C90.9384 44.616 88.1544 51.048 82.1544 51.048C78.2184 51.048 74.2344 49.224 74.2344 41.064C74.2344 34.872 75.7224 29.064 81.7224 29.064C89.7384 29.064 89.5464 40.968 79.4664 40.584C79.5624 45.384 80.5704 48.696 83.4024 48.792C88.0104 48.936 90.1704 43.224 90.6984 39.48ZM83.1144 31.08C79.8024 31.08 79.5144 37.032 79.4664 39.72C88.2024 40.152 87.7704 31.08 83.1144 31.08ZM100.289 39.528C100.433 38.856 101.297 38.952 101.201 39.576C100.577 44.088 99.1366 51 95.7766 51C92.0326 51.048 90.7366 49.08 90.7366 46.344C90.6406 38.184 90.5446 28.2 90.5446 20.28C90.5446 12.456 90.2086 3.528 98.4166 3.528C109.745 3.528 97.8406 29.736 95.8726 34.248C95.8726 38.232 95.8246 40.584 95.8246 44.472C95.8246 46.488 95.7286 48.792 96.6886 48.792C98.6566 48.792 99.7606 43.32 100.289 39.528ZM99.6166 5.88C95.2966 5.88 95.8246 17.352 95.8246 20.184V32.184C103.985 13.992 102.833 5.88 99.6166 5.88ZM116.714 39.48C116.81 38.808 117.722 38.904 117.626 39.576C116.954 44.616 114.17 51.048 108.17 51.048C104.234 51.048 100.25 49.224 100.25 41.064C100.25 34.872 101.738 29.064 107.738 29.064C115.754 29.064 115.562 40.968 105.482 40.584C105.578 45.384 106.586 48.696 109.418 48.792C114.026 48.936 116.186 43.224 116.714 39.48ZM109.13 31.08C105.818 31.08 105.53 37.032 105.482 39.72C114.218 40.152 113.786 31.08 109.13 31.08ZM136.816 39.192C136.864 38.76 137.776 38.856 137.68 39.288C136.864 45.528 134.56 46.872 131.344 46.728C129.856 49.512 126.4 51.192 122.8 51.144C114.784 51.096 116.656 42.168 124.144 44.088C125.344 44.376 126.448 44.712 127.456 45.048C127.6 43.896 127.264 42.744 126.352 41.784C123.232 38.472 119.488 35.928 118.672 32.28C118.144 34.968 117.904 37.8 117.52 40.344C117.424 40.728 116.56 40.584 116.608 40.2C117.088 36.84 117.472 33.096 118.336 29.736C118.912 27.624 119.92 25.032 121.84 23.784H127.12C125.728 25.272 123.808 28.296 123.856 30.408C123.856 34.776 130.336 36.216 131.824 41.4C132.304 43.032 132.208 44.568 131.728 45.864C134.32 45.864 136.048 44.568 136.816 39.192ZM122.8 48.84C125.104 48.84 126.688 47.544 127.264 45.912C126.208 45.624 125.104 45.24 123.952 44.904C118.24 43.464 118.24 48.84 122.8 48.84ZM156.879 39.192C156.927 38.76 157.839 38.856 157.743 39.288C156.927 45.528 154.623 46.872 151.407 46.728C149.919 49.512 146.463 51.192 142.863 51.144C134.847 51.096 136.719 42.168 144.207 44.088C145.407 44.376 146.511 44.712 147.519 45.048C147.663 43.896 147.327 42.744 146.415 41.784C143.295 38.472 139.551 35.928 138.735 32.28C138.207 34.968 137.967 37.8 137.583 40.344C137.487 40.728 136.623 40.584 136.671 40.2C137.151 36.84 137.535 33.096 138.399 29.736C138.975 27.624 139.983 25.032 141.903 23.784H147.183C145.791 25.272 143.871 28.296 143.919 30.408C143.919 34.776 150.399 36.216 151.887 41.4C152.367 43.032 152.271 44.568 151.791 45.864C154.383 45.864 156.111 44.568 156.879 39.192ZM142.863 48.84C145.167 48.84 146.751 47.544 147.327 45.912C146.271 45.624 145.167 45.24 144.015 44.904C138.303 43.464 138.303 48.84 142.863 48.84Z" fill="url(#paint1_radial_121_4562)"/>
<defs>
<radialGradient id="paint0_radial_121_4562" cx="0" cy="0" r="1" gradientUnits="userSpaceOnUse" gradientTransform="translate(84 16) scale(100.094 40.5445)">
<stop stop-color="#FBB809"/>
<stop offset="1" stop-color="#8B590C"/>
</radialGradient>
<radialGradient id="paint1_radial_121_4562" cx="0" cy="0" r="1" gradientUnits="userSpaceOnUse" gradientTransform="translate(84 16) scale(100.094 40.5445)">
<stop stop-color="#FBB809"/>
<stop offset="1" stop-color="#8B590C"/>
</radialGradient>
</defs>
</svg>
