<svg width="405" height="123" viewBox="0 0 405 123" fill="none" xmlns="http://www.w3.org/2000/svg">
<path d="M88.528 106.224C90.928 104.88 91.792 106.896 90.064 108.432C74.896 122.256 61.456 110.064 49.264 100.464C46.288 101.328 43.12 101.904 39.76 101.904C0.0159998 101.904 3.568 17.712 30.064 10.32C32.752 3.984 38.416 1.39199 44.464 1.39199C80.08 1.19999 86.704 72.912 58.768 95.28C69.424 103.056 79.12 111.504 88.528 106.224ZM39.76 100.176C42.256 100.176 44.56 99.6 46.768 98.544C41.584 94.608 36.688 91.536 31.984 91.536C23.344 91.44 30.16 100.176 39.76 100.176ZM35.152 84.912C41.872 84.912 48.208 88.08 54.16 92.112C72.016 68.88 69.328 3.792 43.12 4.272C38.416 4.272 34 6.384 32.08 9.936C33.904 9.64799 35.824 9.84 37.84 10.32L37.36 20.496C34.864 19.824 32.56 20.592 30.544 22.224C33.04 34.608 46 33.36 47.056 22.8C46.768 22.992 46.384 23.088 45.904 23.088C44.368 23.088 43.12 21.84 43.12 20.208C43.12 18.672 44.368 17.424 45.904 17.424C47.728 17.424 48.688 18.768 48.784 20.304C49.744 34.608 32.752 37.968 29.104 23.664C18.544 35.088 14.416 72.624 24.688 90.576C25.84 87.504 29.392 85.008 35.152 84.912ZM105.046 79.056C105.334 77.712 107.062 77.904 106.87 79.152C105.622 88.176 102.742 102 96.022 102C88.534 102.096 85.942 98.16 85.942 92.688C85.75 76.368 85.558 56.4 85.558 40.56C85.558 24.912 84.886 7.056 101.302 7.056C123.958 7.056 100.15 59.472 96.214 68.496C96.214 76.464 96.118 81.168 96.118 88.944C96.118 92.976 95.926 97.584 97.846 97.584C101.782 97.584 103.99 86.64 105.046 79.056ZM103.702 11.76C95.062 11.76 96.118 34.704 96.118 40.368V64.368C112.438 27.984 110.134 11.76 103.702 11.76ZM148.553 79.056C148.745 77.712 150.569 77.904 150.377 79.152C149.129 88.176 146.345 102 139.529 102C132.041 102.096 129.929 98.064 129.449 92.688L129.161 86.928C127.913 94.416 125.513 101.808 118.601 101.904C108.809 101.904 105.065 97.776 104.969 84.624C104.873 76.848 105.161 68.976 105.065 61.2C105.065 56.976 110.921 57.936 115.817 58.416C115.625 67.536 115.625 76.464 115.625 85.584C115.625 93.264 116.489 97.968 120.713 97.872C127.337 97.584 128.297 80.88 129.161 75.6C129.161 70.128 129.353 64.944 129.257 61.2C129.257 56.976 135.113 57.936 139.913 58.416C139.721 68.496 139.625 78.768 139.721 88.944C139.721 92.976 139.433 97.584 141.353 97.584C145.289 97.584 147.401 86.64 148.553 79.056ZM181.397 78.96C181.589 77.616 183.413 77.808 183.221 79.152C181.877 89.232 176.309 102.096 164.309 102.096C156.437 102.096 148.469 98.448 148.469 82.128C148.469 69.744 151.445 58.128 163.445 58.128C179.477 58.128 179.093 81.936 158.933 81.168C159.125 90.768 161.141 97.392 166.805 97.584C176.021 97.872 180.341 86.448 181.397 78.96ZM166.229 62.16C159.605 62.16 159.029 74.064 158.933 79.44C176.405 80.304 175.541 62.16 166.229 62.16ZM200.577 79.056C200.865 77.712 202.593 77.904 202.401 79.152C201.153 88.176 198.273 102 191.553 102C184.065 102.096 181.473 98.16 181.473 92.688C181.281 76.368 181.089 56.4 181.089 40.56C181.089 24.912 180.417 7.056 196.833 7.056C219.489 7.056 195.681 59.472 191.745 68.496C191.745 76.464 191.649 81.168 191.649 88.944C191.649 92.976 191.457 97.584 193.377 97.584C197.313 97.584 199.521 86.64 200.577 79.056ZM199.233 11.76C190.593 11.76 191.649 34.704 191.649 40.368V64.368C207.969 27.984 205.665 11.76 199.233 11.76ZM233.428 78.96C233.62 77.616 235.444 77.808 235.252 79.152C233.908 89.232 228.34 102.096 216.34 102.096C208.468 102.096 200.5 98.448 200.5 82.128C200.5 69.744 203.476 58.128 215.476 58.128C231.508 58.128 231.124 81.936 210.964 81.168C211.156 90.768 213.172 97.392 218.836 97.584C228.052 97.872 232.372 86.448 233.428 78.96ZM218.26 62.16C211.636 62.16 211.06 74.064 210.964 79.44C228.436 80.304 227.572 62.16 218.26 62.16ZM273.633 78.384C273.729 77.52 275.553 77.712 275.361 78.576C273.729 91.056 269.121 93.744 262.689 93.456C259.713 99.024 252.801 102.384 245.601 102.288C229.568 102.192 233.312 84.336 248.289 88.176C250.689 88.752 252.897 89.424 254.913 90.096C255.201 87.792 254.529 85.488 252.705 83.568C246.465 76.944 238.977 71.856 237.345 64.56C236.289 69.936 235.809 75.6 235.041 80.688C234.849 81.456 233.12 81.168 233.216 80.4C234.177 73.68 234.945 66.192 236.673 59.472C237.825 55.248 239.841 50.064 243.681 47.568H254.241C251.457 50.544 247.617 56.592 247.713 60.816C247.713 69.552 260.673 72.432 263.649 82.8C264.609 86.064 264.417 89.136 263.457 91.728C268.641 91.728 272.097 89.136 273.633 78.384ZM245.601 97.68C250.209 97.68 253.377 95.088 254.529 91.824C252.417 91.248 250.209 90.48 247.905 89.808C236.48 86.928 236.48 97.68 245.601 97.68ZM313.758 78.384C313.854 77.52 315.678 77.712 315.486 78.576C313.854 91.056 309.246 93.744 302.814 93.456C299.838 99.024 292.926 102.384 285.726 102.288C269.693 102.192 273.438 84.336 288.414 88.176C290.814 88.752 293.022 89.424 295.038 90.096C295.326 87.792 294.654 85.488 292.83 83.568C286.59 76.944 279.102 71.856 277.47 64.56C276.414 69.936 275.934 75.6 275.166 80.688C274.974 81.456 273.245 81.168 273.341 80.4C274.302 73.68 275.07 66.192 276.798 59.472C277.95 55.248 279.966 50.064 283.806 47.568H294.366C291.582 50.544 287.742 56.592 287.838 60.816C287.838 69.552 300.798 72.432 303.774 82.8C304.734 86.064 304.542 89.136 303.582 91.728C308.766 91.728 312.222 89.136 313.758 78.384ZM285.726 97.68C290.334 97.68 293.502 95.088 294.654 91.824C292.542 91.248 290.334 90.48 288.03 89.808C276.605 86.928 276.605 97.68 285.726 97.68ZM371.284 0.719994C389.62 0.911991 404.308 16.08 396.244 34.128C387.892 52.656 359.476 62.928 359.476 81.936H357.748C357.268 63.024 378.484 50.736 385.78 34.32C391.636 20.976 384.82 4.752 368.884 4.752C341.236 4.752 339.124 40.464 354.868 40.656C366.388 40.752 371.764 23.568 364.18 18.096C364.084 19.152 363.508 20.016 362.548 20.496C361.108 21.168 359.38 20.496 358.804 19.056C358.132 17.616 358.804 15.984 360.244 15.312C361.108 14.928 361.972 15.024 362.74 15.504C375.028 19.824 369.076 42.672 354.676 42.288C336.916 41.904 337.3 0.431992 371.284 0.719994ZM358.612 87.312C362.836 87.312 366.388 90.768 366.388 94.896C366.388 99.024 362.836 102.384 358.612 102.384C354.292 102.384 350.836 99.024 350.836 94.896C350.836 90.768 354.292 87.312 358.612 87.312Z" fill="#FFA000"/>
<path d="M88.528 106.224C90.928 104.88 91.792 106.896 90.064 108.432C74.896 122.256 61.456 110.064 49.264 100.464C46.288 101.328 43.12 101.904 39.76 101.904C0.0159998 101.904 3.568 17.712 30.064 10.32C32.752 3.984 38.416 1.39199 44.464 1.39199C80.08 1.19999 86.704 72.912 58.768 95.28C69.424 103.056 79.12 111.504 88.528 106.224ZM39.76 100.176C42.256 100.176 44.56 99.6 46.768 98.544C41.584 94.608 36.688 91.536 31.984 91.536C23.344 91.44 30.16 100.176 39.76 100.176ZM35.152 84.912C41.872 84.912 48.208 88.08 54.16 92.112C72.016 68.88 69.328 3.792 43.12 4.272C38.416 4.272 34 6.384 32.08 9.936C33.904 9.64799 35.824 9.84 37.84 10.32L37.36 20.496C34.864 19.824 32.56 20.592 30.544 22.224C33.04 34.608 46 33.36 47.056 22.8C46.768 22.992 46.384 23.088 45.904 23.088C44.368 23.088 43.12 21.84 43.12 20.208C43.12 18.672 44.368 17.424 45.904 17.424C47.728 17.424 48.688 18.768 48.784 20.304C49.744 34.608 32.752 37.968 29.104 23.664C18.544 35.088 14.416 72.624 24.688 90.576C25.84 87.504 29.392 85.008 35.152 84.912ZM105.046 79.056C105.334 77.712 107.062 77.904 106.87 79.152C105.622 88.176 102.742 102 96.022 102C88.534 102.096 85.942 98.16 85.942 92.688C85.75 76.368 85.558 56.4 85.558 40.56C85.558 24.912 84.886 7.056 101.302 7.056C123.958 7.056 100.15 59.472 96.214 68.496C96.214 76.464 96.118 81.168 96.118 88.944C96.118 92.976 95.926 97.584 97.846 97.584C101.782 97.584 103.99 86.64 105.046 79.056ZM103.702 11.76C95.062 11.76 96.118 34.704 96.118 40.368V64.368C112.438 27.984 110.134 11.76 103.702 11.76ZM148.553 79.056C148.745 77.712 150.569 77.904 150.377 79.152C149.129 88.176 146.345 102 139.529 102C132.041 102.096 129.929 98.064 129.449 92.688L129.161 86.928C127.913 94.416 125.513 101.808 118.601 101.904C108.809 101.904 105.065 97.776 104.969 84.624C104.873 76.848 105.161 68.976 105.065 61.2C105.065 56.976 110.921 57.936 115.817 58.416C115.625 67.536 115.625 76.464 115.625 85.584C115.625 93.264 116.489 97.968 120.713 97.872C127.337 97.584 128.297 80.88 129.161 75.6C129.161 70.128 129.353 64.944 129.257 61.2C129.257 56.976 135.113 57.936 139.913 58.416C139.721 68.496 139.625 78.768 139.721 88.944C139.721 92.976 139.433 97.584 141.353 97.584C145.289 97.584 147.401 86.64 148.553 79.056ZM181.397 78.96C181.589 77.616 183.413 77.808 183.221 79.152C181.877 89.232 176.309 102.096 164.309 102.096C156.437 102.096 148.469 98.448 148.469 82.128C148.469 69.744 151.445 58.128 163.445 58.128C179.477 58.128 179.093 81.936 158.933 81.168C159.125 90.768 161.141 97.392 166.805 97.584C176.021 97.872 180.341 86.448 181.397 78.96ZM166.229 62.16C159.605 62.16 159.029 74.064 158.933 79.44C176.405 80.304 175.541 62.16 166.229 62.16ZM200.577 79.056C200.865 77.712 202.593 77.904 202.401 79.152C201.153 88.176 198.273 102 191.553 102C184.065 102.096 181.473 98.16 181.473 92.688C181.281 76.368 181.089 56.4 181.089 40.56C181.089 24.912 180.417 7.056 196.833 7.056C219.489 7.056 195.681 59.472 191.745 68.496C191.745 76.464 191.649 81.168 191.649 88.944C191.649 92.976 191.457 97.584 193.377 97.584C197.313 97.584 199.521 86.64 200.577 79.056ZM199.233 11.76C190.593 11.76 191.649 34.704 191.649 40.368V64.368C207.969 27.984 205.665 11.76 199.233 11.76ZM233.428 78.96C233.62 77.616 235.444 77.808 235.252 79.152C233.908 89.232 228.34 102.096 216.34 102.096C208.468 102.096 200.5 98.448 200.5 82.128C200.5 69.744 203.476 58.128 215.476 58.128C231.508 58.128 231.124 81.936 210.964 81.168C211.156 90.768 213.172 97.392 218.836 97.584C228.052 97.872 232.372 86.448 233.428 78.96ZM218.26 62.16C211.636 62.16 211.06 74.064 210.964 79.44C228.436 80.304 227.572 62.16 218.26 62.16ZM273.633 78.384C273.729 77.52 275.553 77.712 275.361 78.576C273.729 91.056 269.121 93.744 262.689 93.456C259.713 99.024 252.801 102.384 245.601 102.288C229.568 102.192 233.312 84.336 248.289 88.176C250.689 88.752 252.897 89.424 254.913 90.096C255.201 87.792 254.529 85.488 252.705 83.568C246.465 76.944 238.977 71.856 237.345 64.56C236.289 69.936 235.809 75.6 235.041 80.688C234.849 81.456 233.12 81.168 233.216 80.4C234.177 73.68 234.945 66.192 236.673 59.472C237.825 55.248 239.841 50.064 243.681 47.568H254.241C251.457 50.544 247.617 56.592 247.713 60.816C247.713 69.552 260.673 72.432 263.649 82.8C264.609 86.064 264.417 89.136 263.457 91.728C268.641 91.728 272.097 89.136 273.633 78.384ZM245.601 97.68C250.209 97.68 253.377 95.088 254.529 91.824C252.417 91.248 250.209 90.48 247.905 89.808C236.48 86.928 236.48 97.68 245.601 97.68ZM313.758 78.384C313.854 77.52 315.678 77.712 315.486 78.576C313.854 91.056 309.246 93.744 302.814 93.456C299.838 99.024 292.926 102.384 285.726 102.288C269.693 102.192 273.438 84.336 288.414 88.176C290.814 88.752 293.022 89.424 295.038 90.096C295.326 87.792 294.654 85.488 292.83 83.568C286.59 76.944 279.102 71.856 277.47 64.56C276.414 69.936 275.934 75.6 275.166 80.688C274.974 81.456 273.245 81.168 273.341 80.4C274.302 73.68 275.07 66.192 276.798 59.472C277.95 55.248 279.966 50.064 283.806 47.568H294.366C291.582 50.544 287.742 56.592 287.838 60.816C287.838 69.552 300.798 72.432 303.774 82.8C304.734 86.064 304.542 89.136 303.582 91.728C308.766 91.728 312.222 89.136 313.758 78.384ZM285.726 97.68C290.334 97.68 293.502 95.088 294.654 91.824C292.542 91.248 290.334 90.48 288.03 89.808C276.605 86.928 276.605 97.68 285.726 97.68ZM371.284 0.719994C389.62 0.911991 404.308 16.08 396.244 34.128C387.892 52.656 359.476 62.928 359.476 81.936H357.748C357.268 63.024 378.484 50.736 385.78 34.32C391.636 20.976 384.82 4.752 368.884 4.752C341.236 4.752 339.124 40.464 354.868 40.656C366.388 40.752 371.764 23.568 364.18 18.096C364.084 19.152 363.508 20.016 362.548 20.496C361.108 21.168 359.38 20.496 358.804 19.056C358.132 17.616 358.804 15.984 360.244 15.312C361.108 14.928 361.972 15.024 362.74 15.504C375.028 19.824 369.076 42.672 354.676 42.288C336.916 41.904 337.3 0.431992 371.284 0.719994ZM358.612 87.312C362.836 87.312 366.388 90.768 366.388 94.896C366.388 99.024 362.836 102.384 358.612 102.384C354.292 102.384 350.836 99.024 350.836 94.896C350.836 90.768 354.292 87.312 358.612 87.312Z" fill="url(#paint0_radial_3_156)"/>
<path d="M88.528 106.224C90.928 104.88 91.792 106.896 90.064 108.432C74.896 122.256 61.456 110.064 49.264 100.464C46.288 101.328 43.12 101.904 39.76 101.904C0.0159998 101.904 3.568 17.712 30.064 10.32C32.752 3.984 38.416 1.39199 44.464 1.39199C80.08 1.19999 86.704 72.912 58.768 95.28C69.424 103.056 79.12 111.504 88.528 106.224ZM39.76 100.176C42.256 100.176 44.56 99.6 46.768 98.544C41.584 94.608 36.688 91.536 31.984 91.536C23.344 91.44 30.16 100.176 39.76 100.176ZM35.152 84.912C41.872 84.912 48.208 88.08 54.16 92.112C72.016 68.88 69.328 3.792 43.12 4.272C38.416 4.272 34 6.384 32.08 9.936C33.904 9.64799 35.824 9.84 37.84 10.32L37.36 20.496C34.864 19.824 32.56 20.592 30.544 22.224C33.04 34.608 46 33.36 47.056 22.8C46.768 22.992 46.384 23.088 45.904 23.088C44.368 23.088 43.12 21.84 43.12 20.208C43.12 18.672 44.368 17.424 45.904 17.424C47.728 17.424 48.688 18.768 48.784 20.304C49.744 34.608 32.752 37.968 29.104 23.664C18.544 35.088 14.416 72.624 24.688 90.576C25.84 87.504 29.392 85.008 35.152 84.912ZM105.046 79.056C105.334 77.712 107.062 77.904 106.87 79.152C105.622 88.176 102.742 102 96.022 102C88.534 102.096 85.942 98.16 85.942 92.688C85.75 76.368 85.558 56.4 85.558 40.56C85.558 24.912 84.886 7.056 101.302 7.056C123.958 7.056 100.15 59.472 96.214 68.496C96.214 76.464 96.118 81.168 96.118 88.944C96.118 92.976 95.926 97.584 97.846 97.584C101.782 97.584 103.99 86.64 105.046 79.056ZM103.702 11.76C95.062 11.76 96.118 34.704 96.118 40.368V64.368C112.438 27.984 110.134 11.76 103.702 11.76ZM148.553 79.056C148.745 77.712 150.569 77.904 150.377 79.152C149.129 88.176 146.345 102 139.529 102C132.041 102.096 129.929 98.064 129.449 92.688L129.161 86.928C127.913 94.416 125.513 101.808 118.601 101.904C108.809 101.904 105.065 97.776 104.969 84.624C104.873 76.848 105.161 68.976 105.065 61.2C105.065 56.976 110.921 57.936 115.817 58.416C115.625 67.536 115.625 76.464 115.625 85.584C115.625 93.264 116.489 97.968 120.713 97.872C127.337 97.584 128.297 80.88 129.161 75.6C129.161 70.128 129.353 64.944 129.257 61.2C129.257 56.976 135.113 57.936 139.913 58.416C139.721 68.496 139.625 78.768 139.721 88.944C139.721 92.976 139.433 97.584 141.353 97.584C145.289 97.584 147.401 86.64 148.553 79.056ZM181.397 78.96C181.589 77.616 183.413 77.808 183.221 79.152C181.877 89.232 176.309 102.096 164.309 102.096C156.437 102.096 148.469 98.448 148.469 82.128C148.469 69.744 151.445 58.128 163.445 58.128C179.477 58.128 179.093 81.936 158.933 81.168C159.125 90.768 161.141 97.392 166.805 97.584C176.021 97.872 180.341 86.448 181.397 78.96ZM166.229 62.16C159.605 62.16 159.029 74.064 158.933 79.44C176.405 80.304 175.541 62.16 166.229 62.16ZM200.577 79.056C200.865 77.712 202.593 77.904 202.401 79.152C201.153 88.176 198.273 102 191.553 102C184.065 102.096 181.473 98.16 181.473 92.688C181.281 76.368 181.089 56.4 181.089 40.56C181.089 24.912 180.417 7.056 196.833 7.056C219.489 7.056 195.681 59.472 191.745 68.496C191.745 76.464 191.649 81.168 191.649 88.944C191.649 92.976 191.457 97.584 193.377 97.584C197.313 97.584 199.521 86.64 200.577 79.056ZM199.233 11.76C190.593 11.76 191.649 34.704 191.649 40.368V64.368C207.969 27.984 205.665 11.76 199.233 11.76ZM233.428 78.96C233.62 77.616 235.444 77.808 235.252 79.152C233.908 89.232 228.34 102.096 216.34 102.096C208.468 102.096 200.5 98.448 200.5 82.128C200.5 69.744 203.476 58.128 215.476 58.128C231.508 58.128 231.124 81.936 210.964 81.168C211.156 90.768 213.172 97.392 218.836 97.584C228.052 97.872 232.372 86.448 233.428 78.96ZM218.26 62.16C211.636 62.16 211.06 74.064 210.964 79.44C228.436 80.304 227.572 62.16 218.26 62.16ZM273.633 78.384C273.729 77.52 275.553 77.712 275.361 78.576C273.729 91.056 269.121 93.744 262.689 93.456C259.713 99.024 252.801 102.384 245.601 102.288C229.568 102.192 233.312 84.336 248.289 88.176C250.689 88.752 252.897 89.424 254.913 90.096C255.201 87.792 254.529 85.488 252.705 83.568C246.465 76.944 238.977 71.856 237.345 64.56C236.289 69.936 235.809 75.6 235.041 80.688C234.849 81.456 233.12 81.168 233.216 80.4C234.177 73.68 234.945 66.192 236.673 59.472C237.825 55.248 239.841 50.064 243.681 47.568H254.241C251.457 50.544 247.617 56.592 247.713 60.816C247.713 69.552 260.673 72.432 263.649 82.8C264.609 86.064 264.417 89.136 263.457 91.728C268.641 91.728 272.097 89.136 273.633 78.384ZM245.601 97.68C250.209 97.68 253.377 95.088 254.529 91.824C252.417 91.248 250.209 90.48 247.905 89.808C236.48 86.928 236.48 97.68 245.601 97.68ZM313.758 78.384C313.854 77.52 315.678 77.712 315.486 78.576C313.854 91.056 309.246 93.744 302.814 93.456C299.838 99.024 292.926 102.384 285.726 102.288C269.693 102.192 273.438 84.336 288.414 88.176C290.814 88.752 293.022 89.424 295.038 90.096C295.326 87.792 294.654 85.488 292.83 83.568C286.59 76.944 279.102 71.856 277.47 64.56C276.414 69.936 275.934 75.6 275.166 80.688C274.974 81.456 273.245 81.168 273.341 80.4C274.302 73.68 275.07 66.192 276.798 59.472C277.95 55.248 279.966 50.064 283.806 47.568H294.366C291.582 50.544 287.742 56.592 287.838 60.816C287.838 69.552 300.798 72.432 303.774 82.8C304.734 86.064 304.542 89.136 303.582 91.728C308.766 91.728 312.222 89.136 313.758 78.384ZM285.726 97.68C290.334 97.68 293.502 95.088 294.654 91.824C292.542 91.248 290.334 90.48 288.03 89.808C276.605 86.928 276.605 97.68 285.726 97.68ZM371.284 0.719994C389.62 0.911991 404.308 16.08 396.244 34.128C387.892 52.656 359.476 62.928 359.476 81.936H357.748C357.268 63.024 378.484 50.736 385.78 34.32C391.636 20.976 384.82 4.752 368.884 4.752C341.236 4.752 339.124 40.464 354.868 40.656C366.388 40.752 371.764 23.568 364.18 18.096C364.084 19.152 363.508 20.016 362.548 20.496C361.108 21.168 359.38 20.496 358.804 19.056C358.132 17.616 358.804 15.984 360.244 15.312C361.108 14.928 361.972 15.024 362.74 15.504C375.028 19.824 369.076 42.672 354.676 42.288C336.916 41.904 337.3 0.431992 371.284 0.719994ZM358.612 87.312C362.836 87.312 366.388 90.768 366.388 94.896C366.388 99.024 362.836 102.384 358.612 102.384C354.292 102.384 350.836 99.024 350.836 94.896C350.836 90.768 354.292 87.312 358.612 87.312Z" fill="white"/>
<path d="M88.528 106.224C90.928 104.88 91.792 106.896 90.064 108.432C74.896 122.256 61.456 110.064 49.264 100.464C46.288 101.328 43.12 101.904 39.76 101.904C0.0159998 101.904 3.568 17.712 30.064 10.32C32.752 3.984 38.416 1.39199 44.464 1.39199C80.08 1.19999 86.704 72.912 58.768 95.28C69.424 103.056 79.12 111.504 88.528 106.224ZM39.76 100.176C42.256 100.176 44.56 99.6 46.768 98.544C41.584 94.608 36.688 91.536 31.984 91.536C23.344 91.44 30.16 100.176 39.76 100.176ZM35.152 84.912C41.872 84.912 48.208 88.08 54.16 92.112C72.016 68.88 69.328 3.792 43.12 4.272C38.416 4.272 34 6.384 32.08 9.936C33.904 9.64799 35.824 9.84 37.84 10.32L37.36 20.496C34.864 19.824 32.56 20.592 30.544 22.224C33.04 34.608 46 33.36 47.056 22.8C46.768 22.992 46.384 23.088 45.904 23.088C44.368 23.088 43.12 21.84 43.12 20.208C43.12 18.672 44.368 17.424 45.904 17.424C47.728 17.424 48.688 18.768 48.784 20.304C49.744 34.608 32.752 37.968 29.104 23.664C18.544 35.088 14.416 72.624 24.688 90.576C25.84 87.504 29.392 85.008 35.152 84.912ZM105.046 79.056C105.334 77.712 107.062 77.904 106.87 79.152C105.622 88.176 102.742 102 96.022 102C88.534 102.096 85.942 98.16 85.942 92.688C85.75 76.368 85.558 56.4 85.558 40.56C85.558 24.912 84.886 7.056 101.302 7.056C123.958 7.056 100.15 59.472 96.214 68.496C96.214 76.464 96.118 81.168 96.118 88.944C96.118 92.976 95.926 97.584 97.846 97.584C101.782 97.584 103.99 86.64 105.046 79.056ZM103.702 11.76C95.062 11.76 96.118 34.704 96.118 40.368V64.368C112.438 27.984 110.134 11.76 103.702 11.76ZM148.553 79.056C148.745 77.712 150.569 77.904 150.377 79.152C149.129 88.176 146.345 102 139.529 102C132.041 102.096 129.929 98.064 129.449 92.688L129.161 86.928C127.913 94.416 125.513 101.808 118.601 101.904C108.809 101.904 105.065 97.776 104.969 84.624C104.873 76.848 105.161 68.976 105.065 61.2C105.065 56.976 110.921 57.936 115.817 58.416C115.625 67.536 115.625 76.464 115.625 85.584C115.625 93.264 116.489 97.968 120.713 97.872C127.337 97.584 128.297 80.88 129.161 75.6C129.161 70.128 129.353 64.944 129.257 61.2C129.257 56.976 135.113 57.936 139.913 58.416C139.721 68.496 139.625 78.768 139.721 88.944C139.721 92.976 139.433 97.584 141.353 97.584C145.289 97.584 147.401 86.64 148.553 79.056ZM181.397 78.96C181.589 77.616 183.413 77.808 183.221 79.152C181.877 89.232 176.309 102.096 164.309 102.096C156.437 102.096 148.469 98.448 148.469 82.128C148.469 69.744 151.445 58.128 163.445 58.128C179.477 58.128 179.093 81.936 158.933 81.168C159.125 90.768 161.141 97.392 166.805 97.584C176.021 97.872 180.341 86.448 181.397 78.96ZM166.229 62.16C159.605 62.16 159.029 74.064 158.933 79.44C176.405 80.304 175.541 62.16 166.229 62.16ZM200.577 79.056C200.865 77.712 202.593 77.904 202.401 79.152C201.153 88.176 198.273 102 191.553 102C184.065 102.096 181.473 98.16 181.473 92.688C181.281 76.368 181.089 56.4 181.089 40.56C181.089 24.912 180.417 7.056 196.833 7.056C219.489 7.056 195.681 59.472 191.745 68.496C191.745 76.464 191.649 81.168 191.649 88.944C191.649 92.976 191.457 97.584 193.377 97.584C197.313 97.584 199.521 86.64 200.577 79.056ZM199.233 11.76C190.593 11.76 191.649 34.704 191.649 40.368V64.368C207.969 27.984 205.665 11.76 199.233 11.76ZM233.428 78.96C233.62 77.616 235.444 77.808 235.252 79.152C233.908 89.232 228.34 102.096 216.34 102.096C208.468 102.096 200.5 98.448 200.5 82.128C200.5 69.744 203.476 58.128 215.476 58.128C231.508 58.128 231.124 81.936 210.964 81.168C211.156 90.768 213.172 97.392 218.836 97.584C228.052 97.872 232.372 86.448 233.428 78.96ZM218.26 62.16C211.636 62.16 211.06 74.064 210.964 79.44C228.436 80.304 227.572 62.16 218.26 62.16ZM273.633 78.384C273.729 77.52 275.553 77.712 275.361 78.576C273.729 91.056 269.121 93.744 262.689 93.456C259.713 99.024 252.801 102.384 245.601 102.288C229.568 102.192 233.312 84.336 248.289 88.176C250.689 88.752 252.897 89.424 254.913 90.096C255.201 87.792 254.529 85.488 252.705 83.568C246.465 76.944 238.977 71.856 237.345 64.56C236.289 69.936 235.809 75.6 235.041 80.688C234.849 81.456 233.12 81.168 233.216 80.4C234.177 73.68 234.945 66.192 236.673 59.472C237.825 55.248 239.841 50.064 243.681 47.568H254.241C251.457 50.544 247.617 56.592 247.713 60.816C247.713 69.552 260.673 72.432 263.649 82.8C264.609 86.064 264.417 89.136 263.457 91.728C268.641 91.728 272.097 89.136 273.633 78.384ZM245.601 97.68C250.209 97.68 253.377 95.088 254.529 91.824C252.417 91.248 250.209 90.48 247.905 89.808C236.48 86.928 236.48 97.68 245.601 97.68ZM313.758 78.384C313.854 77.52 315.678 77.712 315.486 78.576C313.854 91.056 309.246 93.744 302.814 93.456C299.838 99.024 292.926 102.384 285.726 102.288C269.693 102.192 273.438 84.336 288.414 88.176C290.814 88.752 293.022 89.424 295.038 90.096C295.326 87.792 294.654 85.488 292.83 83.568C286.59 76.944 279.102 71.856 277.47 64.56C276.414 69.936 275.934 75.6 275.166 80.688C274.974 81.456 273.245 81.168 273.341 80.4C274.302 73.68 275.07 66.192 276.798 59.472C277.95 55.248 279.966 50.064 283.806 47.568H294.366C291.582 50.544 287.742 56.592 287.838 60.816C287.838 69.552 300.798 72.432 303.774 82.8C304.734 86.064 304.542 89.136 303.582 91.728C308.766 91.728 312.222 89.136 313.758 78.384ZM285.726 97.68C290.334 97.68 293.502 95.088 294.654 91.824C292.542 91.248 290.334 90.48 288.03 89.808C276.605 86.928 276.605 97.68 285.726 97.68ZM371.284 0.719994C389.62 0.911991 404.308 16.08 396.244 34.128C387.892 52.656 359.476 62.928 359.476 81.936H357.748C357.268 63.024 378.484 50.736 385.78 34.32C391.636 20.976 384.82 4.752 368.884 4.752C341.236 4.752 339.124 40.464 354.868 40.656C366.388 40.752 371.764 23.568 364.18 18.096C364.084 19.152 363.508 20.016 362.548 20.496C361.108 21.168 359.38 20.496 358.804 19.056C358.132 17.616 358.804 15.984 360.244 15.312C361.108 14.928 361.972 15.024 362.74 15.504C375.028 19.824 369.076 42.672 354.676 42.288C336.916 41.904 337.3 0.431992 371.284 0.719994ZM358.612 87.312C362.836 87.312 366.388 90.768 366.388 94.896C366.388 99.024 362.836 102.384 358.612 102.384C354.292 102.384 350.836 99.024 350.836 94.896C350.836 90.768 354.292 87.312 358.612 87.312Z" fill="url(#paint1_radial_3_156)"/>
<defs>
<radialGradient id="paint0_radial_3_156" cx="0" cy="0" r="1" gradientUnits="userSpaceOnUse" gradientTransform="translate(212 35.5) scale(255.937 85.5236)">
<stop stop-color="#FBB809"/>
<stop offset="1" stop-color="#8B590C"/>
</radialGradient>
<radialGradient id="paint1_radial_3_156" cx="0" cy="0" r="1" gradientUnits="userSpaceOnUse" gradientTransform="translate(212 35.5) scale(255.937 85.5236)">
<stop stop-color="#FBB809"/>
<stop offset="1" stop-color="#8B590C"/>
</radialGradient>
</defs>
</svg>
