<svg width="92" height="62" viewBox="0 0 92 62" fill="none" xmlns="http://www.w3.org/2000/svg">
<path d="M44.264 53.112C45.464 52.44 45.896 53.448 45.032 54.216C37.448 61.128 30.728 55.032 24.632 50.232C23.144 50.664 21.56 50.952 19.88 50.952C0.0079999 50.952 1.784 8.856 15.032 5.16C16.376 1.992 19.208 0.695995 22.232 0.695995C40.04 0.599997 43.352 36.456 29.384 47.64C34.712 51.528 39.56 55.752 44.264 53.112ZM19.88 50.088C21.128 50.088 22.28 49.8 23.384 49.272C20.792 47.304 18.344 45.768 15.992 45.768C11.672 45.72 15.08 50.088 19.88 50.088ZM17.576 42.456C20.936 42.456 24.104 44.04 27.08 46.056C36.008 34.44 34.664 1.896 21.56 2.136C19.208 2.136 17 3.192 16.04 4.968C16.952 4.824 17.912 4.92 18.92 5.16L18.68 10.248C17.432 9.912 16.28 10.296 15.272 11.112C16.52 17.304 23 16.68 23.528 11.4C23.384 11.496 23.192 11.544 22.952 11.544C22.184 11.544 21.56 10.92 21.56 10.104C21.56 9.336 22.184 8.712 22.952 8.712C23.864 8.712 24.344 9.384 24.392 10.152C24.872 17.304 16.376 18.984 14.552 11.832C9.272 17.544 7.208 36.312 12.344 45.288C12.92 43.752 14.696 42.504 17.576 42.456ZM52.523 39.528C52.667 38.856 53.531 38.952 53.435 39.576C52.811 44.088 51.371 51 48.011 51C44.267 51.048 42.971 49.08 42.971 46.344C42.875 38.184 42.779 28.2 42.779 20.28C42.779 12.456 42.443 3.528 50.651 3.528C61.979 3.528 50.075 29.736 48.107 34.248C48.107 38.232 48.059 40.584 48.059 44.472C48.059 46.488 47.963 48.792 48.923 48.792C50.891 48.792 51.995 43.32 52.523 39.528ZM51.851 5.88C47.531 5.88 48.059 17.352 48.059 20.184V32.184C56.219 13.992 55.067 5.88 51.851 5.88ZM74.2764 39.528C74.3724 38.856 75.2844 38.952 75.1884 39.576C74.5644 44.088 73.1724 51 69.7644 51C66.0204 51.048 64.9644 49.032 64.7244 46.344L64.5804 43.464C63.9564 47.208 62.7564 50.904 59.3004 50.952C54.4044 50.952 52.5324 48.888 52.4844 42.312C52.4364 38.424 52.5804 34.488 52.5324 30.6C52.5324 28.488 55.4604 28.968 57.9084 29.208C57.8124 33.768 57.8124 38.232 57.8124 42.792C57.8124 46.632 58.2444 48.984 60.3564 48.936C63.6684 48.792 64.1484 40.44 64.5804 37.8C64.5804 35.064 64.6764 32.472 64.6284 30.6C64.6284 28.488 67.5564 28.968 69.9564 29.208C69.8604 34.248 69.8124 39.384 69.8604 44.472C69.8604 46.488 69.7164 48.792 70.6764 48.792C72.6444 48.792 73.7004 43.32 74.2764 39.528ZM90.6984 39.48C90.7944 38.808 91.7064 38.904 91.6104 39.576C90.9384 44.616 88.1544 51.048 82.1544 51.048C78.2184 51.048 74.2344 49.224 74.2344 41.064C74.2344 34.872 75.7224 29.064 81.7224 29.064C89.7384 29.064 89.5464 40.968 79.4664 40.584C79.5624 45.384 80.5704 48.696 83.4024 48.792C88.0104 48.936 90.1704 43.224 90.6984 39.48ZM83.1144 31.08C79.8024 31.08 79.5144 37.032 79.4664 39.72C88.2024 40.152 87.7704 31.08 83.1144 31.08Z" fill="#FFA000"/>
<path d="M44.264 53.112C45.464 52.44 45.896 53.448 45.032 54.216C37.448 61.128 30.728 55.032 24.632 50.232C23.144 50.664 21.56 50.952 19.88 50.952C0.0079999 50.952 1.784 8.856 15.032 5.16C16.376 1.992 19.208 0.695995 22.232 0.695995C40.04 0.599997 43.352 36.456 29.384 47.64C34.712 51.528 39.56 55.752 44.264 53.112ZM19.88 50.088C21.128 50.088 22.28 49.8 23.384 49.272C20.792 47.304 18.344 45.768 15.992 45.768C11.672 45.72 15.08 50.088 19.88 50.088ZM17.576 42.456C20.936 42.456 24.104 44.04 27.08 46.056C36.008 34.44 34.664 1.896 21.56 2.136C19.208 2.136 17 3.192 16.04 4.968C16.952 4.824 17.912 4.92 18.92 5.16L18.68 10.248C17.432 9.912 16.28 10.296 15.272 11.112C16.52 17.304 23 16.68 23.528 11.4C23.384 11.496 23.192 11.544 22.952 11.544C22.184 11.544 21.56 10.92 21.56 10.104C21.56 9.336 22.184 8.712 22.952 8.712C23.864 8.712 24.344 9.384 24.392 10.152C24.872 17.304 16.376 18.984 14.552 11.832C9.272 17.544 7.208 36.312 12.344 45.288C12.92 43.752 14.696 42.504 17.576 42.456ZM52.523 39.528C52.667 38.856 53.531 38.952 53.435 39.576C52.811 44.088 51.371 51 48.011 51C44.267 51.048 42.971 49.08 42.971 46.344C42.875 38.184 42.779 28.2 42.779 20.28C42.779 12.456 42.443 3.528 50.651 3.528C61.979 3.528 50.075 29.736 48.107 34.248C48.107 38.232 48.059 40.584 48.059 44.472C48.059 46.488 47.963 48.792 48.923 48.792C50.891 48.792 51.995 43.32 52.523 39.528ZM51.851 5.88C47.531 5.88 48.059 17.352 48.059 20.184V32.184C56.219 13.992 55.067 5.88 51.851 5.88ZM74.2764 39.528C74.3724 38.856 75.2844 38.952 75.1884 39.576C74.5644 44.088 73.1724 51 69.7644 51C66.0204 51.048 64.9644 49.032 64.7244 46.344L64.5804 43.464C63.9564 47.208 62.7564 50.904 59.3004 50.952C54.4044 50.952 52.5324 48.888 52.4844 42.312C52.4364 38.424 52.5804 34.488 52.5324 30.6C52.5324 28.488 55.4604 28.968 57.9084 29.208C57.8124 33.768 57.8124 38.232 57.8124 42.792C57.8124 46.632 58.2444 48.984 60.3564 48.936C63.6684 48.792 64.1484 40.44 64.5804 37.8C64.5804 35.064 64.6764 32.472 64.6284 30.6C64.6284 28.488 67.5564 28.968 69.9564 29.208C69.8604 34.248 69.8124 39.384 69.8604 44.472C69.8604 46.488 69.7164 48.792 70.6764 48.792C72.6444 48.792 73.7004 43.32 74.2764 39.528ZM90.6984 39.48C90.7944 38.808 91.7064 38.904 91.6104 39.576C90.9384 44.616 88.1544 51.048 82.1544 51.048C78.2184 51.048 74.2344 49.224 74.2344 41.064C74.2344 34.872 75.7224 29.064 81.7224 29.064C89.7384 29.064 89.5464 40.968 79.4664 40.584C79.5624 45.384 80.5704 48.696 83.4024 48.792C88.0104 48.936 90.1704 43.224 90.6984 39.48ZM83.1144 31.08C79.8024 31.08 79.5144 37.032 79.4664 39.72C88.2024 40.152 87.7704 31.08 83.1144 31.08Z" fill="url(#paint0_radial_3_69)"/>
<path d="M44.264 53.112C45.464 52.44 45.896 53.448 45.032 54.216C37.448 61.128 30.728 55.032 24.632 50.232C23.144 50.664 21.56 50.952 19.88 50.952C0.0079999 50.952 1.784 8.856 15.032 5.16C16.376 1.992 19.208 0.695995 22.232 0.695995C40.04 0.599997 43.352 36.456 29.384 47.64C34.712 51.528 39.56 55.752 44.264 53.112ZM19.88 50.088C21.128 50.088 22.28 49.8 23.384 49.272C20.792 47.304 18.344 45.768 15.992 45.768C11.672 45.72 15.08 50.088 19.88 50.088ZM17.576 42.456C20.936 42.456 24.104 44.04 27.08 46.056C36.008 34.44 34.664 1.896 21.56 2.136C19.208 2.136 17 3.192 16.04 4.968C16.952 4.824 17.912 4.92 18.92 5.16L18.68 10.248C17.432 9.912 16.28 10.296 15.272 11.112C16.52 17.304 23 16.68 23.528 11.4C23.384 11.496 23.192 11.544 22.952 11.544C22.184 11.544 21.56 10.92 21.56 10.104C21.56 9.336 22.184 8.712 22.952 8.712C23.864 8.712 24.344 9.384 24.392 10.152C24.872 17.304 16.376 18.984 14.552 11.832C9.272 17.544 7.208 36.312 12.344 45.288C12.92 43.752 14.696 42.504 17.576 42.456ZM52.523 39.528C52.667 38.856 53.531 38.952 53.435 39.576C52.811 44.088 51.371 51 48.011 51C44.267 51.048 42.971 49.08 42.971 46.344C42.875 38.184 42.779 28.2 42.779 20.28C42.779 12.456 42.443 3.528 50.651 3.528C61.979 3.528 50.075 29.736 48.107 34.248C48.107 38.232 48.059 40.584 48.059 44.472C48.059 46.488 47.963 48.792 48.923 48.792C50.891 48.792 51.995 43.32 52.523 39.528ZM51.851 5.88C47.531 5.88 48.059 17.352 48.059 20.184V32.184C56.219 13.992 55.067 5.88 51.851 5.88ZM74.2764 39.528C74.3724 38.856 75.2844 38.952 75.1884 39.576C74.5644 44.088 73.1724 51 69.7644 51C66.0204 51.048 64.9644 49.032 64.7244 46.344L64.5804 43.464C63.9564 47.208 62.7564 50.904 59.3004 50.952C54.4044 50.952 52.5324 48.888 52.4844 42.312C52.4364 38.424 52.5804 34.488 52.5324 30.6C52.5324 28.488 55.4604 28.968 57.9084 29.208C57.8124 33.768 57.8124 38.232 57.8124 42.792C57.8124 46.632 58.2444 48.984 60.3564 48.936C63.6684 48.792 64.1484 40.44 64.5804 37.8C64.5804 35.064 64.6764 32.472 64.6284 30.6C64.6284 28.488 67.5564 28.968 69.9564 29.208C69.8604 34.248 69.8124 39.384 69.8604 44.472C69.8604 46.488 69.7164 48.792 70.6764 48.792C72.6444 48.792 73.7004 43.32 74.2764 39.528ZM90.6984 39.48C90.7944 38.808 91.7064 38.904 91.6104 39.576C90.9384 44.616 88.1544 51.048 82.1544 51.048C78.2184 51.048 74.2344 49.224 74.2344 41.064C74.2344 34.872 75.7224 29.064 81.7224 29.064C89.7384 29.064 89.5464 40.968 79.4664 40.584C79.5624 45.384 80.5704 48.696 83.4024 48.792C88.0104 48.936 90.1704 43.224 90.6984 39.48ZM83.1144 31.08C79.8024 31.08 79.5144 37.032 79.4664 39.72C88.2024 40.152 87.7704 31.08 83.1144 31.08Z" fill="white"/>
<path d="M44.264 53.112C45.464 52.44 45.896 53.448 45.032 54.216C37.448 61.128 30.728 55.032 24.632 50.232C23.144 50.664 21.56 50.952 19.88 50.952C0.0079999 50.952 1.784 8.856 15.032 5.16C16.376 1.992 19.208 0.695995 22.232 0.695995C40.04 0.599997 43.352 36.456 29.384 47.64C34.712 51.528 39.56 55.752 44.264 53.112ZM19.88 50.088C21.128 50.088 22.28 49.8 23.384 49.272C20.792 47.304 18.344 45.768 15.992 45.768C11.672 45.72 15.08 50.088 19.88 50.088ZM17.576 42.456C20.936 42.456 24.104 44.04 27.08 46.056C36.008 34.44 34.664 1.896 21.56 2.136C19.208 2.136 17 3.192 16.04 4.968C16.952 4.824 17.912 4.92 18.92 5.16L18.68 10.248C17.432 9.912 16.28 10.296 15.272 11.112C16.52 17.304 23 16.68 23.528 11.4C23.384 11.496 23.192 11.544 22.952 11.544C22.184 11.544 21.56 10.92 21.56 10.104C21.56 9.336 22.184 8.712 22.952 8.712C23.864 8.712 24.344 9.384 24.392 10.152C24.872 17.304 16.376 18.984 14.552 11.832C9.272 17.544 7.208 36.312 12.344 45.288C12.92 43.752 14.696 42.504 17.576 42.456ZM52.523 39.528C52.667 38.856 53.531 38.952 53.435 39.576C52.811 44.088 51.371 51 48.011 51C44.267 51.048 42.971 49.08 42.971 46.344C42.875 38.184 42.779 28.2 42.779 20.28C42.779 12.456 42.443 3.528 50.651 3.528C61.979 3.528 50.075 29.736 48.107 34.248C48.107 38.232 48.059 40.584 48.059 44.472C48.059 46.488 47.963 48.792 48.923 48.792C50.891 48.792 51.995 43.32 52.523 39.528ZM51.851 5.88C47.531 5.88 48.059 17.352 48.059 20.184V32.184C56.219 13.992 55.067 5.88 51.851 5.88ZM74.2764 39.528C74.3724 38.856 75.2844 38.952 75.1884 39.576C74.5644 44.088 73.1724 51 69.7644 51C66.0204 51.048 64.9644 49.032 64.7244 46.344L64.5804 43.464C63.9564 47.208 62.7564 50.904 59.3004 50.952C54.4044 50.952 52.5324 48.888 52.4844 42.312C52.4364 38.424 52.5804 34.488 52.5324 30.6C52.5324 28.488 55.4604 28.968 57.9084 29.208C57.8124 33.768 57.8124 38.232 57.8124 42.792C57.8124 46.632 58.2444 48.984 60.3564 48.936C63.6684 48.792 64.1484 40.44 64.5804 37.8C64.5804 35.064 64.6764 32.472 64.6284 30.6C64.6284 28.488 67.5564 28.968 69.9564 29.208C69.8604 34.248 69.8124 39.384 69.8604 44.472C69.8604 46.488 69.7164 48.792 70.6764 48.792C72.6444 48.792 73.7004 43.32 74.2764 39.528ZM90.6984 39.48C90.7944 38.808 91.7064 38.904 91.6104 39.576C90.9384 44.616 88.1544 51.048 82.1544 51.048C78.2184 51.048 74.2344 49.224 74.2344 41.064C74.2344 34.872 75.7224 29.064 81.7224 29.064C89.7384 29.064 89.5464 40.968 79.4664 40.584C79.5624 45.384 80.5704 48.696 83.4024 48.792C88.0104 48.936 90.1704 43.224 90.6984 39.48ZM83.1144 31.08C79.8024 31.08 79.5144 37.032 79.4664 39.72C88.2024 40.152 87.7704 31.08 83.1144 31.08Z" fill="url(#paint1_radial_3_69)"/>
<defs>
<radialGradient id="paint0_radial_3_69" cx="0" cy="0" r="1" gradientUnits="userSpaceOnUse" gradientTransform="translate(49.5 15) scale(56.3822 39.2775)">
<stop stop-color="#FBB809"/>
<stop offset="1" stop-color="#8B590C"/>
</radialGradient>
<radialGradient id="paint1_radial_3_69" cx="0" cy="0" r="1" gradientUnits="userSpaceOnUse" gradientTransform="translate(49.5 15) scale(56.3822 39.2775)">
<stop stop-color="#FBB809"/>
<stop offset="1" stop-color="#8B590C"/>
</radialGradient>
</defs>
</svg>
