<svg width="48" height="48" viewBox="0 0 48 48" fill="none" xmlns="http://www.w3.org/2000/svg">
<path fill-rule="evenodd" clip-rule="evenodd" d="M38 42H10C7.791 42 6 40.209 6 38V10C6 7.791 7.791 6 10 6H38C40.209 6 42 7.791 42 10V38C42 40.209 40.209 42 38 42Z" fill="black"/>
<path fill-rule="evenodd" clip-rule="evenodd" d="M34.257 34H27.82L13.829 14H20.266L34.257 34ZM28.587 32.304H31.15L19.499 15.696H16.936L28.587 32.304Z" fill="white"/>
<path fill-rule="evenodd" clip-rule="evenodd" d="M15.866 34L23.069 25.656L22.127 24.407L13.823 34H15.866Z" fill="white"/>
<path fill-rule="evenodd" clip-rule="evenodd" d="M24.45 21.721L25.3549 23.01L33.136 14H31.136L24.45 21.721Z" fill="white"/>
</svg>
